ISO-10303-21;
HEADER;
FILE_DESCRIPTION(('FreeCAD Model'),'2;1');
FILE_NAME('Open CASCADE Shape Model','2026-09-30T16:33:01',('Author'),(
    ''),'Open CASCADE STEP processor 8.0','FreeCAD','Unknown');
FILE_SCHEMA(('AUTOMOTIVE_DESIGN { 1 0 10303 214 1 1 1 1 }'));
ENDSEC;
DATA;
#1 = APPLICATION_PROTOCOL_DEFINITION('international standard',
  'automotive_design',2000,#2);
#2 = APPLICATION_CONTEXT(
  'core data for automotive mechanical design processes');
#3 = SHAPE_DEFINITION_REPRESENTATION(#4,#10);
#4 = PRODUCT_DEFINITION_SHAPE('','',#5);
#5 = PRODUCT_DEFINITION('design','',#6,#9);
#6 = PRODUCT_DEFINITION_FORMATION('','',#7);
#7 = PRODUCT('03_collier_tourelle','03_collier_tourelle','',(#8));
#8 = PRODUCT_CONTEXT('',#2,'mechanical');
#9 = PRODUCT_DEFINITION_CONTEXT('part definition',#2,'design');
#10 = ADVANCED_BREP_SHAPE_REPRESENTATION('',(#11,#15),#1800);
#11 = AXIS2_PLACEMENT_3D('',#12,#13,#14);
#12 = CARTESIAN_POINT('',(0.,0.,0.));
#13 = DIRECTION('',(0.,0.,1.));
#14 = DIRECTION('',(1.,0.,-0.));
#15 = MANIFOLD_SOLID_BREP('',#16);
#16 = CLOSED_SHELL('',(#17,#66,#155,#355,#379,#429,#446,#465,#482,#495,
    #526,#561,#615,#636,#650,#671,#744,#792,#816,#847,#887,#911,#943,
    #974,#995,#1009,#1030,#1091,#1114,#1175,#1198,#1221,#1256,#1280,
    #1315,#1332,#1343,#1359,#1370,#1393,#1458,#1474,#1492,#1510,#1526,
    #1563,#1591,#1613,#1635,#1657,#1679,#1695,#1718,#1732,#1769,#1778));
#17 = ADVANCED_FACE('',(#18),#61,.F.);
#18 = FACE_BOUND('',#19,.F.);
#19 = EDGE_LOOP('',(#20,#30,#38,#46,#54));
#20 = ORIENTED_EDGE('',*,*,#21,.F.);
#21 = EDGE_CURVE('',#22,#24,#26,.T.);
#22 = VERTEX_POINT('',#23);
#23 = CARTESIAN_POINT('',(-26.,-1.,1.));
#24 = VERTEX_POINT('',#25);
#25 = CARTESIAN_POINT('',(-16.97056274847,-1.,1.));
#26 = LINE('',#27,#28);
#27 = CARTESIAN_POINT('',(-26.,-1.,1.));
#28 = VECTOR('',#29,1.);
#29 = DIRECTION('',(1.,0.,-0.));
#30 = ORIENTED_EDGE('',*,*,#31,.F.);
#31 = EDGE_CURVE('',#32,#22,#34,.T.);
#32 = VERTEX_POINT('',#33);
#33 = CARTESIAN_POINT('',(-26.,-9.,1.));
#34 = LINE('',#35,#36);
#35 = CARTESIAN_POINT('',(-26.,-9.,1.));
#36 = VECTOR('',#37,1.);
#37 = DIRECTION('',(-0.,1.,0.));
#38 = ORIENTED_EDGE('',*,*,#39,.T.);
#39 = EDGE_CURVE('',#32,#40,#42,.T.);
#40 = VERTEX_POINT('',#41);
#41 = CARTESIAN_POINT('',(-15.,-9.,1.));
#42 = LINE('',#43,#44);
#43 = CARTESIAN_POINT('',(-26.,-9.,1.));
#44 = VECTOR('',#45,1.);
#45 = DIRECTION('',(1.,0.,-0.));
#46 = ORIENTED_EDGE('',*,*,#47,.T.);
#47 = EDGE_CURVE('',#40,#48,#50,.T.);
#48 = VERTEX_POINT('',#49);
#49 = CARTESIAN_POINT('',(-15.,-8.,1.));
#50 = LINE('',#51,#52);
#51 = CARTESIAN_POINT('',(-15.,-9.,1.));
#52 = VECTOR('',#53,1.);
#53 = DIRECTION('',(-0.,1.,0.));
#54 = ORIENTED_EDGE('',*,*,#55,.F.);
#55 = EDGE_CURVE('',#24,#48,#56,.T.);
#56 = CIRCLE('',#57,17.);
#57 = AXIS2_PLACEMENT_3D('',#58,#59,#60);
#58 = CARTESIAN_POINT('',(0.,0.,1.));
#59 = DIRECTION('',(0.,0.,1.));
#60 = DIRECTION('',(1.,0.,-0.));
#61 = PLANE('',#62);
#62 = AXIS2_PLACEMENT_3D('',#63,#64,#65);
#63 = CARTESIAN_POINT('',(-26.,-9.,1.));
#64 = DIRECTION('',(0.,0.,1.));
#65 = DIRECTION('',(1.,0.,-0.));
#66 = ADVANCED_FACE('',(#67),#150,.T.);
#67 = FACE_BOUND('',#68,.T.);
#68 = EDGE_LOOP('',(#69,#77,#78,#86,#95,#104,#112,#120,#128,#136,#144));
#69 = ORIENTED_EDGE('',*,*,#70,.T.);
#70 = EDGE_CURVE('',#71,#24,#73,.T.);
#71 = VERTEX_POINT('',#72);
#72 = CARTESIAN_POINT('',(-16.97056274847,-1.,0.));
#73 = LINE('',#74,#75);
#74 = CARTESIAN_POINT('',(-16.97056274847,-1.,0.));
#75 = VECTOR('',#76,1.);
#76 = DIRECTION('',(0.,0.,1.));
#77 = ORIENTED_EDGE('',*,*,#21,.F.);
#78 = ORIENTED_EDGE('',*,*,#79,.T.);
#79 = EDGE_CURVE('',#22,#80,#82,.T.);
#80 = VERTEX_POINT('',#81);
#81 = CARTESIAN_POINT('',(-26.,-1.,3.502000800641));
#82 = LINE('',#83,#84);
#83 = CARTESIAN_POINT('',(-26.,-1.,1.));
#84 = VECTOR('',#85,1.);
#85 = DIRECTION('',(0.,0.,1.));
#86 = ORIENTED_EDGE('',*,*,#87,.F.);
#87 = EDGE_CURVE('',#88,#80,#90,.T.);
#88 = VERTEX_POINT('',#89);
#89 = CARTESIAN_POINT('',(-22.5,-1.,10.3));
#90 = CIRCLE('',#91,4.3);
#91 = AXIS2_PLACEMENT_3D('',#92,#93,#94);
#92 = CARTESIAN_POINT('',(-22.5,-1.,6.));
#93 = DIRECTION('',(0.,1.,0.));
#94 = DIRECTION('',(0.,-0.,1.));
#95 = ORIENTED_EDGE('',*,*,#96,.F.);
#96 = EDGE_CURVE('',#97,#88,#99,.T.);
#97 = VERTEX_POINT('',#98);
#98 = CARTESIAN_POINT('',(-26.,-1.,8.497999199359));
#99 = CIRCLE('',#100,4.3);
#100 = AXIS2_PLACEMENT_3D('',#101,#102,#103);
#101 = CARTESIAN_POINT('',(-22.5,-1.,6.));
#102 = DIRECTION('',(0.,1.,0.));
#103 = DIRECTION('',(0.,-0.,1.));
#104 = ORIENTED_EDGE('',*,*,#105,.T.);
#105 = EDGE_CURVE('',#97,#106,#108,.T.);
#106 = VERTEX_POINT('',#107);
#107 = CARTESIAN_POINT('',(-26.,-1.,11.));
#108 = LINE('',#109,#110);
#109 = CARTESIAN_POINT('',(-26.,-1.,1.));
#110 = VECTOR('',#111,1.);
#111 = DIRECTION('',(0.,0.,1.));
#112 = ORIENTED_EDGE('',*,*,#113,.T.);
#113 = EDGE_CURVE('',#106,#114,#116,.T.);
#114 = VERTEX_POINT('',#115);
#115 = CARTESIAN_POINT('',(-16.97056274847,-1.,11.));
#116 = LINE('',#117,#118);
#117 = CARTESIAN_POINT('',(-26.,-1.,11.));
#118 = VECTOR('',#119,1.);
#119 = DIRECTION('',(1.,0.,-0.));
#120 = ORIENTED_EDGE('',*,*,#121,.T.);
#121 = EDGE_CURVE('',#114,#122,#124,.T.);
#122 = VERTEX_POINT('',#123);
#123 = CARTESIAN_POINT('',(-16.97056274847,-1.,12.));
#124 = LINE('',#125,#126);
#125 = CARTESIAN_POINT('',(-16.97056274847,-1.,0.));
#126 = VECTOR('',#127,1.);
#127 = DIRECTION('',(0.,0.,1.));
#128 = ORIENTED_EDGE('',*,*,#129,.F.);
#129 = EDGE_CURVE('',#130,#122,#132,.T.);
#130 = VERTEX_POINT('',#131);
#131 = CARTESIAN_POINT('',(-13.26235273245,-1.,12.));
#132 = LINE('',#133,#134);
#133 = CARTESIAN_POINT('',(-13.5,-1.,12.));
#134 = VECTOR('',#135,1.);
#135 = DIRECTION('',(-1.,-0.,0.));
#136 = ORIENTED_EDGE('',*,*,#137,.F.);
#137 = EDGE_CURVE('',#138,#130,#140,.T.);
#138 = VERTEX_POINT('',#139);
#139 = CARTESIAN_POINT('',(-13.26235273245,-1.,0.));
#140 = LINE('',#141,#142);
#141 = CARTESIAN_POINT('',(-13.26235273245,-1.,-1.));
#142 = VECTOR('',#143,1.);
#143 = DIRECTION('',(0.,0.,1.));
#144 = ORIENTED_EDGE('',*,*,#145,.T.);
#145 = EDGE_CURVE('',#138,#71,#146,.T.);
#146 = LINE('',#147,#148);
#147 = CARTESIAN_POINT('',(-13.5,-1.,0.));
#148 = VECTOR('',#149,1.);
#149 = DIRECTION('',(-1.,-0.,0.));
#150 = PLANE('',#151);
#151 = AXIS2_PLACEMENT_3D('',#152,#153,#154);
#152 = CARTESIAN_POINT('',(-19.52973293756,-1.,6.049041700181));
#153 = DIRECTION('',(0.,1.,0.));
#154 = DIRECTION('',(0.,-0.,1.));
#155 = ADVANCED_FACE('',(#156),#350,.T.);
#156 = FACE_BOUND('',#157,.T.);
#157 = EDGE_LOOP('',(#158,#169,#178,#187,#196,#203,#204,#213,#219,#220,
    #221,#230,#239,#247,#256,#264,#273,#282,#290,#299,#307,#316,#325,
    #334,#343));
#158 = ORIENTED_EDGE('',*,*,#159,.F.);
#159 = EDGE_CURVE('',#160,#162,#164,.T.);
#160 = VERTEX_POINT('',#161);
#161 = CARTESIAN_POINT('',(10.,-13.74772708486,12.));
#162 = VERTEX_POINT('',#163);
#163 = CARTESIAN_POINT('',(17.,-4.163799117101E-15,12.));
#164 = CIRCLE('',#165,17.);
#165 = AXIS2_PLACEMENT_3D('',#166,#167,#168);
#166 = CARTESIAN_POINT('',(0.,0.,12.));
#167 = DIRECTION('',(0.,0.,1.));
#168 = DIRECTION('',(1.,0.,-0.));
#169 = ORIENTED_EDGE('',*,*,#170,.F.);
#170 = EDGE_CURVE('',#171,#160,#173,.T.);
#171 = VERTEX_POINT('',#172);
#172 = CARTESIAN_POINT('',(8.,-15.,12.));
#173 = CIRCLE('',#174,17.);
#174 = AXIS2_PLACEMENT_3D('',#175,#176,#177);
#175 = CARTESIAN_POINT('',(0.,0.,12.));
#176 = DIRECTION('',(0.,0.,1.));
#177 = DIRECTION('',(1.,0.,-0.));
#178 = ORIENTED_EDGE('',*,*,#179,.F.);
#179 = EDGE_CURVE('',#180,#171,#182,.T.);
#180 = VERTEX_POINT('',#181);
#181 = CARTESIAN_POINT('',(-8.,-15.,12.));
#182 = CIRCLE('',#183,17.);
#183 = AXIS2_PLACEMENT_3D('',#184,#185,#186);
#184 = CARTESIAN_POINT('',(0.,0.,12.));
#185 = DIRECTION('',(0.,0.,1.));
#186 = DIRECTION('',(1.,0.,-0.));
#187 = ORIENTED_EDGE('',*,*,#188,.F.);
#188 = EDGE_CURVE('',#189,#180,#191,.T.);
#189 = VERTEX_POINT('',#190);
#190 = CARTESIAN_POINT('',(-10.,-13.74772708486,12.));
#191 = CIRCLE('',#192,17.);
#192 = AXIS2_PLACEMENT_3D('',#193,#194,#195);
#193 = CARTESIAN_POINT('',(0.,0.,12.));
#194 = DIRECTION('',(0.,0.,1.));
#195 = DIRECTION('',(1.,0.,-0.));
#196 = ORIENTED_EDGE('',*,*,#197,.F.);
#197 = EDGE_CURVE('',#122,#189,#198,.T.);
#198 = CIRCLE('',#199,17.);
#199 = AXIS2_PLACEMENT_3D('',#200,#201,#202);
#200 = CARTESIAN_POINT('',(0.,0.,12.));
#201 = DIRECTION('',(0.,0.,1.));
#202 = DIRECTION('',(1.,0.,-0.));
#203 = ORIENTED_EDGE('',*,*,#121,.F.);
#204 = ORIENTED_EDGE('',*,*,#205,.T.);
#205 = EDGE_CURVE('',#114,#206,#208,.T.);
#206 = VERTEX_POINT('',#207);
#207 = CARTESIAN_POINT('',(-15.,-8.,11.));
#208 = CIRCLE('',#209,17.);
#209 = AXIS2_PLACEMENT_3D('',#210,#211,#212);
#210 = CARTESIAN_POINT('',(0.,0.,11.));
#211 = DIRECTION('',(0.,0.,1.));
#212 = DIRECTION('',(1.,0.,-0.));
#213 = ORIENTED_EDGE('',*,*,#214,.F.);
#214 = EDGE_CURVE('',#48,#206,#215,.T.);
#215 = LINE('',#216,#217);
#216 = CARTESIAN_POINT('',(-15.,-8.,0.));
#217 = VECTOR('',#218,1.);
#218 = DIRECTION('',(0.,0.,1.));
#219 = ORIENTED_EDGE('',*,*,#55,.F.);
#220 = ORIENTED_EDGE('',*,*,#70,.F.);
#221 = ORIENTED_EDGE('',*,*,#222,.T.);
#222 = EDGE_CURVE('',#71,#223,#225,.T.);
#223 = VERTEX_POINT('',#224);
#224 = CARTESIAN_POINT('',(17.,-4.163799117101E-15,0.));
#225 = CIRCLE('',#226,17.);
#226 = AXIS2_PLACEMENT_3D('',#227,#228,#229);
#227 = CARTESIAN_POINT('',(0.,0.,0.));
#228 = DIRECTION('',(0.,0.,1.));
#229 = DIRECTION('',(1.,0.,-0.));
#230 = ORIENTED_EDGE('',*,*,#231,.T.);
#231 = EDGE_CURVE('',#223,#232,#234,.T.);
#232 = VERTEX_POINT('',#233);
#233 = CARTESIAN_POINT('',(-16.97056274847,1.,0.));
#234 = CIRCLE('',#235,17.);
#235 = AXIS2_PLACEMENT_3D('',#236,#237,#238);
#236 = CARTESIAN_POINT('',(0.,0.,0.));
#237 = DIRECTION('',(0.,0.,1.));
#238 = DIRECTION('',(1.,0.,-0.));
#239 = ORIENTED_EDGE('',*,*,#240,.T.);
#240 = EDGE_CURVE('',#232,#241,#243,.T.);
#241 = VERTEX_POINT('',#242);
#242 = CARTESIAN_POINT('',(-16.97056274847,1.,1.));
#243 = LINE('',#244,#245);
#244 = CARTESIAN_POINT('',(-16.97056274847,1.,0.));
#245 = VECTOR('',#246,1.);
#246 = DIRECTION('',(0.,0.,1.));
#247 = ORIENTED_EDGE('',*,*,#248,.F.);
#248 = EDGE_CURVE('',#249,#241,#251,.T.);
#249 = VERTEX_POINT('',#250);
#250 = CARTESIAN_POINT('',(-15.,8.,1.));
#251 = CIRCLE('',#252,17.);
#252 = AXIS2_PLACEMENT_3D('',#253,#254,#255);
#253 = CARTESIAN_POINT('',(0.,0.,1.));
#254 = DIRECTION('',(0.,0.,1.));
#255 = DIRECTION('',(1.,0.,-0.));
#256 = ORIENTED_EDGE('',*,*,#257,.T.);
#257 = EDGE_CURVE('',#249,#258,#260,.T.);
#258 = VERTEX_POINT('',#259);
#259 = CARTESIAN_POINT('',(-15.,8.,5.690381056767));
#260 = LINE('',#261,#262);
#261 = CARTESIAN_POINT('',(-15.,8.,0.));
#262 = VECTOR('',#263,1.);
#263 = DIRECTION('',(0.,0.,1.));
#264 = ORIENTED_EDGE('',*,*,#265,.F.);
#265 = EDGE_CURVE('',#266,#258,#268,.T.);
#266 = VERTEX_POINT('',#267);
#267 = CARTESIAN_POINT('',(-14.82124141977,8.326512041465,6.));
#268 = ELLIPSE('',#269,34.,17.);
#269 = AXIS2_PLACEMENT_3D('',#270,#271,#272);
#270 = CARTESIAN_POINT('',(0.,0.,31.6711431703));
#271 = DIRECTION('',(-0.866025403784,-5.551115123126E-17,0.5));
#272 = DIRECTION('',(0.5,3.204937810639E-17,0.866025403784));
#273 = ORIENTED_EDGE('',*,*,#274,.F.);
#274 = EDGE_CURVE('',#275,#266,#277,.T.);
#275 = VERTEX_POINT('',#276);
#276 = CARTESIAN_POINT('',(-15.,8.,6.309618943233));
#277 = ELLIPSE('',#278,34.,17.);
#278 = AXIS2_PLACEMENT_3D('',#279,#280,#281);
#279 = CARTESIAN_POINT('',(0.,0.,-19.6711431703));
#280 = DIRECTION('',(-0.866025403784,5.551115123126E-17,-0.5));
#281 = DIRECTION('',(-0.5,3.204937810639E-17,0.866025403784));
#282 = ORIENTED_EDGE('',*,*,#283,.T.);
#283 = EDGE_CURVE('',#275,#284,#286,.T.);
#284 = VERTEX_POINT('',#285);
#285 = CARTESIAN_POINT('',(-15.,8.,11.));
#286 = LINE('',#287,#288);
#287 = CARTESIAN_POINT('',(-15.,8.,0.));
#288 = VECTOR('',#289,1.);
#289 = DIRECTION('',(0.,0.,1.));
#290 = ORIENTED_EDGE('',*,*,#291,.T.);
#291 = EDGE_CURVE('',#284,#292,#294,.T.);
#292 = VERTEX_POINT('',#293);
#293 = CARTESIAN_POINT('',(-16.97056274847,1.,11.));
#294 = CIRCLE('',#295,17.);
#295 = AXIS2_PLACEMENT_3D('',#296,#297,#298);
#296 = CARTESIAN_POINT('',(0.,0.,11.));
#297 = DIRECTION('',(0.,0.,1.));
#298 = DIRECTION('',(1.,0.,-0.));
#299 = ORIENTED_EDGE('',*,*,#300,.T.);
#300 = EDGE_CURVE('',#292,#301,#303,.T.);
#301 = VERTEX_POINT('',#302);
#302 = CARTESIAN_POINT('',(-16.97056274847,1.,12.));
#303 = LINE('',#304,#305);
#304 = CARTESIAN_POINT('',(-16.97056274847,1.,0.));
#305 = VECTOR('',#306,1.);
#306 = DIRECTION('',(0.,0.,1.));
#307 = ORIENTED_EDGE('',*,*,#308,.F.);
#308 = EDGE_CURVE('',#309,#301,#311,.T.);
#309 = VERTEX_POINT('',#310);
#310 = CARTESIAN_POINT('',(-10.,13.747727084868,12.));
#311 = CIRCLE('',#312,17.);
#312 = AXIS2_PLACEMENT_3D('',#313,#314,#315);
#313 = CARTESIAN_POINT('',(0.,0.,12.));
#314 = DIRECTION('',(0.,0.,1.));
#315 = DIRECTION('',(1.,0.,-0.));
#316 = ORIENTED_EDGE('',*,*,#317,.F.);
#317 = EDGE_CURVE('',#318,#309,#320,.T.);
#318 = VERTEX_POINT('',#319);
#319 = CARTESIAN_POINT('',(-8.,15.,12.));
#320 = CIRCLE('',#321,17.);
#321 = AXIS2_PLACEMENT_3D('',#322,#323,#324);
#322 = CARTESIAN_POINT('',(0.,0.,12.));
#323 = DIRECTION('',(0.,0.,1.));
#324 = DIRECTION('',(1.,0.,-0.));
#325 = ORIENTED_EDGE('',*,*,#326,.F.);
#326 = EDGE_CURVE('',#327,#318,#329,.T.);
#327 = VERTEX_POINT('',#328);
#328 = CARTESIAN_POINT('',(8.,15.,12.));
#329 = CIRCLE('',#330,17.);
#330 = AXIS2_PLACEMENT_3D('',#331,#332,#333);
#331 = CARTESIAN_POINT('',(0.,0.,12.));
#332 = DIRECTION('',(0.,0.,1.));
#333 = DIRECTION('',(1.,0.,-0.));
#334 = ORIENTED_EDGE('',*,*,#335,.F.);
#335 = EDGE_CURVE('',#336,#327,#338,.T.);
#336 = VERTEX_POINT('',#337);
#337 = CARTESIAN_POINT('',(10.,13.747727084868,12.));
#338 = CIRCLE('',#339,17.);
#339 = AXIS2_PLACEMENT_3D('',#340,#341,#342);
#340 = CARTESIAN_POINT('',(0.,0.,12.));
#341 = DIRECTION('',(0.,0.,1.));
#342 = DIRECTION('',(1.,0.,-0.));
#343 = ORIENTED_EDGE('',*,*,#344,.F.);
#344 = EDGE_CURVE('',#162,#336,#345,.T.);
#345 = CIRCLE('',#346,17.);
#346 = AXIS2_PLACEMENT_3D('',#347,#348,#349);
#347 = CARTESIAN_POINT('',(0.,0.,12.));
#348 = DIRECTION('',(0.,0.,1.));
#349 = DIRECTION('',(1.,0.,-0.));
#350 = CYLINDRICAL_SURFACE('',#351,17.);
#351 = AXIS2_PLACEMENT_3D('',#352,#353,#354);
#352 = CARTESIAN_POINT('',(0.,0.,0.));
#353 = DIRECTION('',(0.,0.,1.));
#354 = DIRECTION('',(1.,0.,-0.));
#355 = ADVANCED_FACE('',(#356),#374,.T.);
#356 = FACE_BOUND('',#357,.T.);
#357 = EDGE_LOOP('',(#358,#366,#372,#373));
#358 = ORIENTED_EDGE('',*,*,#359,.F.);
#359 = EDGE_CURVE('',#360,#206,#362,.T.);
#360 = VERTEX_POINT('',#361);
#361 = CARTESIAN_POINT('',(-15.,-9.,11.));
#362 = LINE('',#363,#364);
#363 = CARTESIAN_POINT('',(-15.,-9.,11.));
#364 = VECTOR('',#365,1.);
#365 = DIRECTION('',(-0.,1.,0.));
#366 = ORIENTED_EDGE('',*,*,#367,.F.);
#367 = EDGE_CURVE('',#40,#360,#368,.T.);
#368 = LINE('',#369,#370);
#369 = CARTESIAN_POINT('',(-15.,-9.,1.));
#370 = VECTOR('',#371,1.);
#371 = DIRECTION('',(0.,0.,1.));
#372 = ORIENTED_EDGE('',*,*,#47,.T.);
#373 = ORIENTED_EDGE('',*,*,#214,.T.);
#374 = PLANE('',#375);
#375 = AXIS2_PLACEMENT_3D('',#376,#377,#378);
#376 = CARTESIAN_POINT('',(-15.,-9.,1.));
#377 = DIRECTION('',(1.,0.,-0.));
#378 = DIRECTION('',(0.,0.,1.));
#379 = ADVANCED_FACE('',(#380),#424,.F.);
#380 = FACE_BOUND('',#381,.F.);
#381 = EDGE_LOOP('',(#382,#383,#384,#392,#401,#410,#418));
#382 = ORIENTED_EDGE('',*,*,#367,.F.);
#383 = ORIENTED_EDGE('',*,*,#39,.F.);
#384 = ORIENTED_EDGE('',*,*,#385,.T.);
#385 = EDGE_CURVE('',#32,#386,#388,.T.);
#386 = VERTEX_POINT('',#387);
#387 = CARTESIAN_POINT('',(-26.,-9.,3.502000800641));
#388 = LINE('',#389,#390);
#389 = CARTESIAN_POINT('',(-26.,-9.,1.));
#390 = VECTOR('',#391,1.);
#391 = DIRECTION('',(0.,0.,1.));
#392 = ORIENTED_EDGE('',*,*,#393,.F.);
#393 = EDGE_CURVE('',#394,#386,#396,.T.);
#394 = VERTEX_POINT('',#395);
#395 = CARTESIAN_POINT('',(-22.5,-9.,10.3));
#396 = CIRCLE('',#397,4.3);
#397 = AXIS2_PLACEMENT_3D('',#398,#399,#400);
#398 = CARTESIAN_POINT('',(-22.5,-9.,6.));
#399 = DIRECTION('',(0.,1.,0.));
#400 = DIRECTION('',(0.,-0.,1.));
#401 = ORIENTED_EDGE('',*,*,#402,.F.);
#402 = EDGE_CURVE('',#403,#394,#405,.T.);
#403 = VERTEX_POINT('',#404);
#404 = CARTESIAN_POINT('',(-26.,-9.,8.497999199359));
#405 = CIRCLE('',#406,4.3);
#406 = AXIS2_PLACEMENT_3D('',#407,#408,#409);
#407 = CARTESIAN_POINT('',(-22.5,-9.,6.));
#408 = DIRECTION('',(0.,1.,0.));
#409 = DIRECTION('',(0.,-0.,1.));
#410 = ORIENTED_EDGE('',*,*,#411,.T.);
#411 = EDGE_CURVE('',#403,#412,#414,.T.);
#412 = VERTEX_POINT('',#413);
#413 = CARTESIAN_POINT('',(-26.,-9.,11.));
#414 = LINE('',#415,#416);
#415 = CARTESIAN_POINT('',(-26.,-9.,1.));
#416 = VECTOR('',#417,1.);
#417 = DIRECTION('',(0.,0.,1.));
#418 = ORIENTED_EDGE('',*,*,#419,.T.);
#419 = EDGE_CURVE('',#412,#360,#420,.T.);
#420 = LINE('',#421,#422);
#421 = CARTESIAN_POINT('',(-26.,-9.,11.));
#422 = VECTOR('',#423,1.);
#423 = DIRECTION('',(1.,0.,-0.));
#424 = PLANE('',#425);
#425 = AXIS2_PLACEMENT_3D('',#426,#427,#428);
#426 = CARTESIAN_POINT('',(-26.,-9.,1.));
#427 = DIRECTION('',(-0.,1.,0.));
#428 = DIRECTION('',(0.,0.,1.));
#429 = ADVANCED_FACE('',(#430),#441,.F.);
#430 = FACE_BOUND('',#431,.F.);
#431 = EDGE_LOOP('',(#432,#433,#434,#435));
#432 = ORIENTED_EDGE('',*,*,#385,.F.);
#433 = ORIENTED_EDGE('',*,*,#31,.T.);
#434 = ORIENTED_EDGE('',*,*,#79,.T.);
#435 = ORIENTED_EDGE('',*,*,#436,.F.);
#436 = EDGE_CURVE('',#386,#80,#437,.T.);
#437 = LINE('',#438,#439);
#438 = CARTESIAN_POINT('',(-26.,-20.,3.502000800641));
#439 = VECTOR('',#440,1.);
#440 = DIRECTION('',(0.,1.,0.));
#441 = PLANE('',#442);
#442 = AXIS2_PLACEMENT_3D('',#443,#444,#445);
#443 = CARTESIAN_POINT('',(-26.,-9.,1.));
#444 = DIRECTION('',(1.,0.,-0.));
#445 = DIRECTION('',(0.,0.,1.));
#446 = ADVANCED_FACE('',(#447),#460,.F.);
#447 = FACE_BOUND('',#448,.F.);
#448 = EDGE_LOOP('',(#449,#450,#451,#452,#458,#459));
#449 = ORIENTED_EDGE('',*,*,#436,.T.);
#450 = ORIENTED_EDGE('',*,*,#87,.F.);
#451 = ORIENTED_EDGE('',*,*,#96,.F.);
#452 = ORIENTED_EDGE('',*,*,#453,.F.);
#453 = EDGE_CURVE('',#403,#97,#454,.T.);
#454 = LINE('',#455,#456);
#455 = CARTESIAN_POINT('',(-26.,-20.,8.497999199359));
#456 = VECTOR('',#457,1.);
#457 = DIRECTION('',(0.,1.,0.));
#458 = ORIENTED_EDGE('',*,*,#402,.T.);
#459 = ORIENTED_EDGE('',*,*,#393,.T.);
#460 = CYLINDRICAL_SURFACE('',#461,4.3);
#461 = AXIS2_PLACEMENT_3D('',#462,#463,#464);
#462 = CARTESIAN_POINT('',(-22.5,-20.,6.));
#463 = DIRECTION('',(0.,1.,0.));
#464 = DIRECTION('',(0.,-0.,1.));
#465 = ADVANCED_FACE('',(#466),#477,.F.);
#466 = FACE_BOUND('',#467,.F.);
#467 = EDGE_LOOP('',(#468,#469,#470,#471));
#468 = ORIENTED_EDGE('',*,*,#411,.F.);
#469 = ORIENTED_EDGE('',*,*,#453,.T.);
#470 = ORIENTED_EDGE('',*,*,#105,.T.);
#471 = ORIENTED_EDGE('',*,*,#472,.F.);
#472 = EDGE_CURVE('',#412,#106,#473,.T.);
#473 = LINE('',#474,#475);
#474 = CARTESIAN_POINT('',(-26.,-9.,11.));
#475 = VECTOR('',#476,1.);
#476 = DIRECTION('',(-0.,1.,0.));
#477 = PLANE('',#478);
#478 = AXIS2_PLACEMENT_3D('',#479,#480,#481);
#479 = CARTESIAN_POINT('',(-26.,-9.,1.));
#480 = DIRECTION('',(1.,0.,-0.));
#481 = DIRECTION('',(0.,0.,1.));
#482 = ADVANCED_FACE('',(#483),#490,.T.);
#483 = FACE_BOUND('',#484,.T.);
#484 = EDGE_LOOP('',(#485,#486,#487,#488,#489));
#485 = ORIENTED_EDGE('',*,*,#113,.F.);
#486 = ORIENTED_EDGE('',*,*,#472,.F.);
#487 = ORIENTED_EDGE('',*,*,#419,.T.);
#488 = ORIENTED_EDGE('',*,*,#359,.T.);
#489 = ORIENTED_EDGE('',*,*,#205,.F.);
#490 = PLANE('',#491);
#491 = AXIS2_PLACEMENT_3D('',#492,#493,#494);
#492 = CARTESIAN_POINT('',(-26.,-9.,11.));
#493 = DIRECTION('',(0.,0.,1.));
#494 = DIRECTION('',(1.,0.,-0.));
#495 = ADVANCED_FACE('',(#496),#521,.T.);
#496 = FACE_BOUND('',#497,.T.);
#497 = EDGE_LOOP('',(#498,#499,#500,#507,#514));
#498 = ORIENTED_EDGE('',*,*,#129,.T.);
#499 = ORIENTED_EDGE('',*,*,#197,.T.);
#500 = ORIENTED_EDGE('',*,*,#501,.T.);
#501 = EDGE_CURVE('',#189,#502,#504,.T.);
#502 = VERTEX_POINT('',#503);
#503 = CARTESIAN_POINT('',(-10.,-9.,12.));
#504 = B_SPLINE_CURVE_WITH_KNOTS('',1,(#505,#506),.UNSPECIFIED.,.F.,.F.,
  (2,2),(0.,6.),.PIECEWISE_BEZIER_KNOTS.);
#505 = CARTESIAN_POINT('',(-10.,-15.,12.));
#506 = CARTESIAN_POINT('',(-10.,-9.,12.));
#507 = ORIENTED_EDGE('',*,*,#508,.T.);
#508 = EDGE_CURVE('',#502,#509,#511,.T.);
#509 = VERTEX_POINT('',#510);
#510 = CARTESIAN_POINT('',(-9.792343948208,-9.,12.));
#511 = B_SPLINE_CURVE_WITH_KNOTS('',1,(#512,#513),.UNSPECIFIED.,.F.,.F.,
  (2,2),(0.,20.),.PIECEWISE_BEZIER_KNOTS.);
#512 = CARTESIAN_POINT('',(-10.,-9.,12.));
#513 = CARTESIAN_POINT('',(10.,-9.,12.));
#514 = ORIENTED_EDGE('',*,*,#515,.F.);
#515 = EDGE_CURVE('',#130,#509,#516,.T.);
#516 = CIRCLE('',#517,13.3);
#517 = AXIS2_PLACEMENT_3D('',#518,#519,#520);
#518 = CARTESIAN_POINT('',(0.,0.,12.));
#519 = DIRECTION('',(0.,0.,1.));
#520 = DIRECTION('',(1.,0.,-0.));
#521 = PLANE('',#522);
#522 = AXIS2_PLACEMENT_3D('',#523,#524,#525);
#523 = CARTESIAN_POINT('',(0.,0.,12.));
#524 = DIRECTION('',(0.,0.,1.));
#525 = DIRECTION('',(1.,0.,-0.));
#526 = ADVANCED_FACE('',(#527),#556,.F.);
#527 = FACE_BOUND('',#528,.F.);
#528 = EDGE_LOOP('',(#529,#530,#531,#539,#548,#555));
#529 = ORIENTED_EDGE('',*,*,#222,.T.);
#530 = ORIENTED_EDGE('',*,*,#231,.T.);
#531 = ORIENTED_EDGE('',*,*,#532,.F.);
#532 = EDGE_CURVE('',#533,#232,#535,.T.);
#533 = VERTEX_POINT('',#534);
#534 = CARTESIAN_POINT('',(-13.26235273245,1.,0.));
#535 = LINE('',#536,#537);
#536 = CARTESIAN_POINT('',(-13.5,1.,0.));
#537 = VECTOR('',#538,1.);
#538 = DIRECTION('',(-1.,-0.,0.));
#539 = ORIENTED_EDGE('',*,*,#540,.F.);
#540 = EDGE_CURVE('',#541,#533,#543,.T.);
#541 = VERTEX_POINT('',#542);
#542 = CARTESIAN_POINT('',(13.3,-3.257560485732E-15,0.));
#543 = CIRCLE('',#544,13.3);
#544 = AXIS2_PLACEMENT_3D('',#545,#546,#547);
#545 = CARTESIAN_POINT('',(0.,0.,0.));
#546 = DIRECTION('',(0.,0.,1.));
#547 = DIRECTION('',(1.,0.,-0.));
#548 = ORIENTED_EDGE('',*,*,#549,.F.);
#549 = EDGE_CURVE('',#138,#541,#550,.T.);
#550 = CIRCLE('',#551,13.3);
#551 = AXIS2_PLACEMENT_3D('',#552,#553,#554);
#552 = CARTESIAN_POINT('',(0.,0.,0.));
#553 = DIRECTION('',(0.,0.,1.));
#554 = DIRECTION('',(1.,0.,-0.));
#555 = ORIENTED_EDGE('',*,*,#145,.T.);
#556 = PLANE('',#557);
#557 = AXIS2_PLACEMENT_3D('',#558,#559,#560);
#558 = CARTESIAN_POINT('',(0.,0.,0.));
#559 = DIRECTION('',(0.,0.,1.));
#560 = DIRECTION('',(1.,0.,-0.));
#561 = ADVANCED_FACE('',(#562),#610,.T.);
#562 = FACE_BOUND('',#563,.T.);
#563 = EDGE_LOOP('',(#564,#575,#582,#587,#588,#589,#596,#603));
#564 = ORIENTED_EDGE('',*,*,#565,.F.);
#565 = EDGE_CURVE('',#566,#568,#570,.T.);
#566 = VERTEX_POINT('',#567);
#567 = CARTESIAN_POINT('',(9.792343948208,-9.,12.));
#568 = VERTEX_POINT('',#569);
#569 = CARTESIAN_POINT('',(13.3,-3.257560485732E-15,12.));
#570 = CIRCLE('',#571,13.3);
#571 = AXIS2_PLACEMENT_3D('',#572,#573,#574);
#572 = CARTESIAN_POINT('',(0.,0.,12.));
#573 = DIRECTION('',(0.,0.,1.));
#574 = DIRECTION('',(1.,0.,-0.));
#575 = ORIENTED_EDGE('',*,*,#576,.T.);
#576 = EDGE_CURVE('',#566,#577,#579,.T.);
#577 = VERTEX_POINT('',#578);
#578 = CARTESIAN_POINT('',(10.,-9.,12.));
#579 = B_SPLINE_CURVE_WITH_KNOTS('',1,(#580,#581),.UNSPECIFIED.,.F.,.F.,
  (2,2),(0.,20.),.PIECEWISE_BEZIER_KNOTS.);
#580 = CARTESIAN_POINT('',(-10.,-9.,12.));
#581 = CARTESIAN_POINT('',(10.,-9.,12.));
#582 = ORIENTED_EDGE('',*,*,#583,.F.);
#583 = EDGE_CURVE('',#160,#577,#584,.T.);
#584 = B_SPLINE_CURVE_WITH_KNOTS('',1,(#585,#586),.UNSPECIFIED.,.F.,.F.,
  (2,2),(0.,6.),.PIECEWISE_BEZIER_KNOTS.);
#585 = CARTESIAN_POINT('',(10.,-15.,12.));
#586 = CARTESIAN_POINT('',(10.,-9.,12.));
#587 = ORIENTED_EDGE('',*,*,#159,.T.);
#588 = ORIENTED_EDGE('',*,*,#344,.T.);
#589 = ORIENTED_EDGE('',*,*,#590,.F.);
#590 = EDGE_CURVE('',#591,#336,#593,.T.);
#591 = VERTEX_POINT('',#592);
#592 = CARTESIAN_POINT('',(10.,9.,12.));
#593 = B_SPLINE_CURVE_WITH_KNOTS('',1,(#594,#595),.UNSPECIFIED.,.F.,.F.,
  (2,2),(0.,6.),.PIECEWISE_BEZIER_KNOTS.);
#594 = CARTESIAN_POINT('',(10.,9.,12.));
#595 = CARTESIAN_POINT('',(10.,15.,12.));
#596 = ORIENTED_EDGE('',*,*,#597,.F.);
#597 = EDGE_CURVE('',#598,#591,#600,.T.);
#598 = VERTEX_POINT('',#599);
#599 = CARTESIAN_POINT('',(9.792343948208,9.,12.));
#600 = B_SPLINE_CURVE_WITH_KNOTS('',1,(#601,#602),.UNSPECIFIED.,.F.,.F.,
  (2,2),(0.,20.),.PIECEWISE_BEZIER_KNOTS.);
#601 = CARTESIAN_POINT('',(-10.,9.,12.));
#602 = CARTESIAN_POINT('',(10.,9.,12.));
#603 = ORIENTED_EDGE('',*,*,#604,.F.);
#604 = EDGE_CURVE('',#568,#598,#605,.T.);
#605 = CIRCLE('',#606,13.3);
#606 = AXIS2_PLACEMENT_3D('',#607,#608,#609);
#607 = CARTESIAN_POINT('',(0.,0.,12.));
#608 = DIRECTION('',(0.,0.,1.));
#609 = DIRECTION('',(1.,0.,-0.));
#610 = PLANE('',#611);
#611 = AXIS2_PLACEMENT_3D('',#612,#613,#614);
#612 = CARTESIAN_POINT('',(0.,0.,12.));
#613 = DIRECTION('',(0.,0.,1.));
#614 = DIRECTION('',(1.,0.,-0.));
#615 = ADVANCED_FACE('',(#616),#631,.T.);
#616 = FACE_BOUND('',#617,.T.);
#617 = EDGE_LOOP('',(#618,#625,#626));
#618 = ORIENTED_EDGE('',*,*,#619,.F.);
#619 = EDGE_CURVE('',#171,#620,#622,.T.);
#620 = VERTEX_POINT('',#621);
#621 = CARTESIAN_POINT('',(10.,-15.,12.));
#622 = B_SPLINE_CURVE_WITH_KNOTS('',1,(#623,#624),.UNSPECIFIED.,.F.,.F.,
  (2,2),(0.,20.),.PIECEWISE_BEZIER_KNOTS.);
#623 = CARTESIAN_POINT('',(-10.,-15.,12.));
#624 = CARTESIAN_POINT('',(10.,-15.,12.));
#625 = ORIENTED_EDGE('',*,*,#170,.T.);
#626 = ORIENTED_EDGE('',*,*,#627,.F.);
#627 = EDGE_CURVE('',#620,#160,#628,.T.);
#628 = B_SPLINE_CURVE_WITH_KNOTS('',1,(#629,#630),.UNSPECIFIED.,.F.,.F.,
  (2,2),(0.,6.),.PIECEWISE_BEZIER_KNOTS.);
#629 = CARTESIAN_POINT('',(10.,-15.,12.));
#630 = CARTESIAN_POINT('',(10.,-9.,12.));
#631 = B_SPLINE_SURFACE_WITH_KNOTS('',1,1,(
    (#632,#633)
    ,(#634,#635
    )),.UNSPECIFIED.,.F.,.F.,.F.,(2,2),(2,2),(0.,20.),(-6.,0.),
  .PIECEWISE_BEZIER_KNOTS.);
#632 = CARTESIAN_POINT('',(-10.,-9.,12.));
#633 = CARTESIAN_POINT('',(-10.,-15.,12.));
#634 = CARTESIAN_POINT('',(10.,-9.,12.));
#635 = CARTESIAN_POINT('',(10.,-15.,12.));
#636 = ADVANCED_FACE('',(#637),#645,.T.);
#637 = FACE_BOUND('',#638,.T.);
#638 = EDGE_LOOP('',(#639,#644));
#639 = ORIENTED_EDGE('',*,*,#640,.F.);
#640 = EDGE_CURVE('',#180,#171,#641,.T.);
#641 = B_SPLINE_CURVE_WITH_KNOTS('',1,(#642,#643),.UNSPECIFIED.,.F.,.F.,
  (2,2),(0.,20.),.PIECEWISE_BEZIER_KNOTS.);
#642 = CARTESIAN_POINT('',(-10.,-15.,12.));
#643 = CARTESIAN_POINT('',(10.,-15.,12.));
#644 = ORIENTED_EDGE('',*,*,#179,.T.);
#645 = PLANE('',#646);
#646 = AXIS2_PLACEMENT_3D('',#647,#648,#649);
#647 = CARTESIAN_POINT('',(0.,0.,12.));
#648 = DIRECTION('',(0.,0.,1.));
#649 = DIRECTION('',(1.,0.,-0.));
#650 = ADVANCED_FACE('',(#651),#666,.T.);
#651 = FACE_BOUND('',#652,.T.);
#652 = EDGE_LOOP('',(#653,#660,#665));
#653 = ORIENTED_EDGE('',*,*,#654,.F.);
#654 = EDGE_CURVE('',#655,#180,#657,.T.);
#655 = VERTEX_POINT('',#656);
#656 = CARTESIAN_POINT('',(-10.,-15.,12.));
#657 = B_SPLINE_CURVE_WITH_KNOTS('',1,(#658,#659),.UNSPECIFIED.,.F.,.F.,
  (2,2),(0.,20.),.PIECEWISE_BEZIER_KNOTS.);
#658 = CARTESIAN_POINT('',(-10.,-15.,12.));
#659 = CARTESIAN_POINT('',(10.,-15.,12.));
#660 = ORIENTED_EDGE('',*,*,#661,.T.);
#661 = EDGE_CURVE('',#655,#189,#662,.T.);
#662 = B_SPLINE_CURVE_WITH_KNOTS('',1,(#663,#664),.UNSPECIFIED.,.F.,.F.,
  (2,2),(0.,6.),.PIECEWISE_BEZIER_KNOTS.);
#663 = CARTESIAN_POINT('',(-10.,-15.,12.));
#664 = CARTESIAN_POINT('',(-10.,-9.,12.));
#665 = ORIENTED_EDGE('',*,*,#188,.T.);
#666 = B_SPLINE_SURFACE_WITH_KNOTS('',1,1,(
    (#667,#668)
    ,(#669,#670
    )),.UNSPECIFIED.,.F.,.F.,.F.,(2,2),(2,2),(0.,20.),(-6.,0.),
  .PIECEWISE_BEZIER_KNOTS.);
#667 = CARTESIAN_POINT('',(-10.,-9.,12.));
#668 = CARTESIAN_POINT('',(-10.,-15.,12.));
#669 = CARTESIAN_POINT('',(10.,-9.,12.));
#670 = CARTESIAN_POINT('',(10.,-15.,12.));
#671 = ADVANCED_FACE('',(#672),#739,.T.);
#672 = FACE_BOUND('',#673,.T.);
#673 = EDGE_LOOP('',(#674,#675,#676,#684,#690,#691,#699,#707,#716,#725,
    #733));
#674 = ORIENTED_EDGE('',*,*,#240,.F.);
#675 = ORIENTED_EDGE('',*,*,#532,.F.);
#676 = ORIENTED_EDGE('',*,*,#677,.T.);
#677 = EDGE_CURVE('',#533,#678,#680,.T.);
#678 = VERTEX_POINT('',#679);
#679 = CARTESIAN_POINT('',(-13.26235273245,1.,12.));
#680 = LINE('',#681,#682);
#681 = CARTESIAN_POINT('',(-13.26235273245,1.,-1.));
#682 = VECTOR('',#683,1.);
#683 = DIRECTION('',(0.,0.,1.));
#684 = ORIENTED_EDGE('',*,*,#685,.T.);
#685 = EDGE_CURVE('',#678,#301,#686,.T.);
#686 = LINE('',#687,#688);
#687 = CARTESIAN_POINT('',(-13.5,1.,12.));
#688 = VECTOR('',#689,1.);
#689 = DIRECTION('',(-1.,-0.,0.));
#690 = ORIENTED_EDGE('',*,*,#300,.F.);
#691 = ORIENTED_EDGE('',*,*,#692,.F.);
#692 = EDGE_CURVE('',#693,#292,#695,.T.);
#693 = VERTEX_POINT('',#694);
#694 = CARTESIAN_POINT('',(-26.,1.,11.));
#695 = LINE('',#696,#697);
#696 = CARTESIAN_POINT('',(-26.,1.,11.));
#697 = VECTOR('',#698,1.);
#698 = DIRECTION('',(1.,0.,-0.));
#699 = ORIENTED_EDGE('',*,*,#700,.F.);
#700 = EDGE_CURVE('',#701,#693,#703,.T.);
#701 = VERTEX_POINT('',#702);
#702 = CARTESIAN_POINT('',(-26.,1.,8.497999199359));
#703 = LINE('',#704,#705);
#704 = CARTESIAN_POINT('',(-26.,1.,1.));
#705 = VECTOR('',#706,1.);
#706 = DIRECTION('',(0.,0.,1.));
#707 = ORIENTED_EDGE('',*,*,#708,.T.);
#708 = EDGE_CURVE('',#701,#709,#711,.T.);
#709 = VERTEX_POINT('',#710);
#710 = CARTESIAN_POINT('',(-22.5,1.,10.3));
#711 = CIRCLE('',#712,4.3);
#712 = AXIS2_PLACEMENT_3D('',#713,#714,#715);
#713 = CARTESIAN_POINT('',(-22.5,1.,6.));
#714 = DIRECTION('',(0.,1.,0.));
#715 = DIRECTION('',(0.,-0.,1.));
#716 = ORIENTED_EDGE('',*,*,#717,.T.);
#717 = EDGE_CURVE('',#709,#718,#720,.T.);
#718 = VERTEX_POINT('',#719);
#719 = CARTESIAN_POINT('',(-26.,1.,3.502000800641));
#720 = CIRCLE('',#721,4.3);
#721 = AXIS2_PLACEMENT_3D('',#722,#723,#724);
#722 = CARTESIAN_POINT('',(-22.5,1.,6.));
#723 = DIRECTION('',(0.,1.,0.));
#724 = DIRECTION('',(0.,-0.,1.));
#725 = ORIENTED_EDGE('',*,*,#726,.F.);
#726 = EDGE_CURVE('',#727,#718,#729,.T.);
#727 = VERTEX_POINT('',#728);
#728 = CARTESIAN_POINT('',(-26.,1.,1.));
#729 = LINE('',#730,#731);
#730 = CARTESIAN_POINT('',(-26.,1.,1.));
#731 = VECTOR('',#732,1.);
#732 = DIRECTION('',(0.,0.,1.));
#733 = ORIENTED_EDGE('',*,*,#734,.T.);
#734 = EDGE_CURVE('',#727,#241,#735,.T.);
#735 = LINE('',#736,#737);
#736 = CARTESIAN_POINT('',(-26.,1.,1.));
#737 = VECTOR('',#738,1.);
#738 = DIRECTION('',(1.,0.,-0.));
#739 = PLANE('',#740);
#740 = AXIS2_PLACEMENT_3D('',#741,#742,#743);
#741 = CARTESIAN_POINT('',(-19.52973293756,1.,6.049041700181));
#742 = DIRECTION('',(-0.,-1.,-0.));
#743 = DIRECTION('',(0.,0.,-1.));
#744 = ADVANCED_FACE('',(#745),#787,.F.);
#745 = FACE_BOUND('',#746,.F.);
#746 = EDGE_LOOP('',(#747,#757,#765,#773,#779,#780,#781));
#747 = ORIENTED_EDGE('',*,*,#748,.F.);
#748 = EDGE_CURVE('',#749,#751,#753,.T.);
#749 = VERTEX_POINT('',#750);
#750 = CARTESIAN_POINT('',(-17.70799276572,9.,1.));
#751 = VERTEX_POINT('',#752);
#752 = CARTESIAN_POINT('',(-15.,9.,1.));
#753 = LINE('',#754,#755);
#754 = CARTESIAN_POINT('',(-26.,9.,1.));
#755 = VECTOR('',#756,1.);
#756 = DIRECTION('',(1.,0.,-0.));
#757 = ORIENTED_EDGE('',*,*,#758,.T.);
#758 = EDGE_CURVE('',#749,#759,#761,.T.);
#759 = VERTEX_POINT('',#760);
#760 = CARTESIAN_POINT('',(-17.70799276572,4.,1.));
#761 = LINE('',#762,#763);
#762 = CARTESIAN_POINT('',(-17.70799276572,2.5,1.));
#763 = VECTOR('',#764,1.);
#764 = DIRECTION('',(6.409875621279E-17,-1.,0.));
#765 = ORIENTED_EDGE('',*,*,#766,.T.);
#766 = EDGE_CURVE('',#759,#767,#769,.T.);
#767 = VERTEX_POINT('',#768);
#768 = CARTESIAN_POINT('',(-26.,4.,1.));
#769 = LINE('',#770,#771);
#770 = CARTESIAN_POINT('',(-24.25,4.,1.));
#771 = VECTOR('',#772,1.);
#772 = DIRECTION('',(-1.,0.,0.));
#773 = ORIENTED_EDGE('',*,*,#774,.F.);
#774 = EDGE_CURVE('',#727,#767,#775,.T.);
#775 = LINE('',#776,#777);
#776 = CARTESIAN_POINT('',(-26.,1.,1.));
#777 = VECTOR('',#778,1.);
#778 = DIRECTION('',(-0.,1.,0.));
#779 = ORIENTED_EDGE('',*,*,#734,.T.);
#780 = ORIENTED_EDGE('',*,*,#248,.F.);
#781 = ORIENTED_EDGE('',*,*,#782,.T.);
#782 = EDGE_CURVE('',#249,#751,#783,.T.);
#783 = LINE('',#784,#785);
#784 = CARTESIAN_POINT('',(-15.,1.,1.));
#785 = VECTOR('',#786,1.);
#786 = DIRECTION('',(-0.,1.,0.));
#787 = PLANE('',#788);
#788 = AXIS2_PLACEMENT_3D('',#789,#790,#791);
#789 = CARTESIAN_POINT('',(-26.,1.,1.));
#790 = DIRECTION('',(0.,0.,1.));
#791 = DIRECTION('',(1.,0.,-0.));
#792 = ADVANCED_FACE('',(#793),#811,.T.);
#793 = FACE_BOUND('',#794,.T.);
#794 = EDGE_LOOP('',(#795,#803,#804,#805));
#795 = ORIENTED_EDGE('',*,*,#796,.T.);
#796 = EDGE_CURVE('',#797,#258,#799,.T.);
#797 = VERTEX_POINT('',#798);
#798 = CARTESIAN_POINT('',(-15.,9.,5.690381056767));
#799 = LINE('',#800,#801);
#800 = CARTESIAN_POINT('',(-15.,2.5,5.690381056767));
#801 = VECTOR('',#802,1.);
#802 = DIRECTION('',(0.,-1.,-1.110223024625E-16));
#803 = ORIENTED_EDGE('',*,*,#257,.F.);
#804 = ORIENTED_EDGE('',*,*,#782,.T.);
#805 = ORIENTED_EDGE('',*,*,#806,.T.);
#806 = EDGE_CURVE('',#751,#797,#807,.T.);
#807 = LINE('',#808,#809);
#808 = CARTESIAN_POINT('',(-15.,9.,1.));
#809 = VECTOR('',#810,1.);
#810 = DIRECTION('',(0.,0.,1.));
#811 = PLANE('',#812);
#812 = AXIS2_PLACEMENT_3D('',#813,#814,#815);
#813 = CARTESIAN_POINT('',(-15.,1.,1.));
#814 = DIRECTION('',(1.,0.,-0.));
#815 = DIRECTION('',(0.,0.,1.));
#816 = ADVANCED_FACE('',(#817),#842,.T.);
#817 = FACE_BOUND('',#818,.T.);
#818 = EDGE_LOOP('',(#819,#827,#833,#834,#835,#841));
#819 = ORIENTED_EDGE('',*,*,#820,.F.);
#820 = EDGE_CURVE('',#821,#759,#823,.T.);
#821 = VERTEX_POINT('',#822);
#822 = CARTESIAN_POINT('',(-14.82124141977,4.,6.));
#823 = LINE('',#824,#825);
#824 = CARTESIAN_POINT('',(-14.82124141977,4.,6.));
#825 = VECTOR('',#826,1.);
#826 = DIRECTION('',(-0.5,9.614813431918E-17,-0.866025403784));
#827 = ORIENTED_EDGE('',*,*,#828,.T.);
#828 = EDGE_CURVE('',#821,#266,#829,.T.);
#829 = LINE('',#830,#831);
#830 = CARTESIAN_POINT('',(-14.82124141977,4.,6.));
#831 = VECTOR('',#832,1.);
#832 = DIRECTION('',(0.,1.,1.110223024625E-16));
#833 = ORIENTED_EDGE('',*,*,#265,.T.);
#834 = ORIENTED_EDGE('',*,*,#796,.F.);
#835 = ORIENTED_EDGE('',*,*,#836,.F.);
#836 = EDGE_CURVE('',#749,#797,#837,.T.);
#837 = LINE('',#838,#839);
#838 = CARTESIAN_POINT('',(-17.30111799703,9.,1.704727771689));
#839 = VECTOR('',#840,1.);
#840 = DIRECTION('',(0.5,0.,0.866025403784));
#841 = ORIENTED_EDGE('',*,*,#758,.T.);
#842 = PLANE('',#843);
#843 = AXIS2_PLACEMENT_3D('',#844,#845,#846);
#844 = CARTESIAN_POINT('',(-14.82124141977,4.,6.));
#845 = DIRECTION('',(-0.866025403784,-5.551115123126E-17,0.5));
#846 = DIRECTION('',(-0.5,9.614813431918E-17,-0.866025403784));
#847 = ADVANCED_FACE('',(#848),#882,.T.);
#848 = FACE_BOUND('',#849,.T.);
#849 = EDGE_LOOP('',(#850,#858,#866,#874,#880,#881));
#850 = ORIENTED_EDGE('',*,*,#851,.F.);
#851 = EDGE_CURVE('',#852,#821,#854,.T.);
#852 = VERTEX_POINT('',#853);
#853 = CARTESIAN_POINT('',(-17.70799276572,4.,11.));
#854 = LINE('',#855,#856);
#855 = CARTESIAN_POINT('',(-18.66062070988,4.,12.65));
#856 = VECTOR('',#857,1.);
#857 = DIRECTION('',(0.5,9.614813431918E-17,-0.866025403784));
#858 = ORIENTED_EDGE('',*,*,#859,.F.);
#859 = EDGE_CURVE('',#860,#852,#862,.T.);
#860 = VERTEX_POINT('',#861);
#861 = CARTESIAN_POINT('',(-17.70799276572,9.,11.));
#862 = LINE('',#863,#864);
#863 = CARTESIAN_POINT('',(-17.70799276572,2.5,11.));
#864 = VECTOR('',#865,1.);
#865 = DIRECTION('',(-6.409875621279E-17,-1.,0.));
#866 = ORIENTED_EDGE('',*,*,#867,.F.);
#867 = EDGE_CURVE('',#868,#860,#870,.T.);
#868 = VERTEX_POINT('',#869);
#869 = CARTESIAN_POINT('',(-15.,9.,6.309618943233));
#870 = LINE('',#871,#872);
#871 = CARTESIAN_POINT('',(-17.05574413263,9.,9.870272228311));
#872 = VECTOR('',#873,1.);
#873 = DIRECTION('',(-0.5,-0.,0.866025403784));
#874 = ORIENTED_EDGE('',*,*,#875,.F.);
#875 = EDGE_CURVE('',#275,#868,#876,.T.);
#876 = LINE('',#877,#878);
#877 = CARTESIAN_POINT('',(-15.,2.5,6.309618943233));
#878 = VECTOR('',#879,1.);
#879 = DIRECTION('',(0.,1.,1.110223024625E-16));
#880 = ORIENTED_EDGE('',*,*,#274,.T.);
#881 = ORIENTED_EDGE('',*,*,#828,.F.);
#882 = PLANE('',#883);
#883 = AXIS2_PLACEMENT_3D('',#884,#885,#886);
#884 = CARTESIAN_POINT('',(-18.66062070988,4.,12.65));
#885 = DIRECTION('',(-0.866025403784,5.551115123126E-17,-0.5));
#886 = DIRECTION('',(0.5,9.614813431918E-17,-0.866025403784));
#887 = ADVANCED_FACE('',(#888),#906,.T.);
#888 = FACE_BOUND('',#889,.T.);
#889 = EDGE_LOOP('',(#890,#898,#899,#900));
#890 = ORIENTED_EDGE('',*,*,#891,.F.);
#891 = EDGE_CURVE('',#284,#892,#894,.T.);
#892 = VERTEX_POINT('',#893);
#893 = CARTESIAN_POINT('',(-15.,9.,11.));
#894 = LINE('',#895,#896);
#895 = CARTESIAN_POINT('',(-15.,1.,11.));
#896 = VECTOR('',#897,1.);
#897 = DIRECTION('',(-0.,1.,0.));
#898 = ORIENTED_EDGE('',*,*,#283,.F.);
#899 = ORIENTED_EDGE('',*,*,#875,.T.);
#900 = ORIENTED_EDGE('',*,*,#901,.T.);
#901 = EDGE_CURVE('',#868,#892,#902,.T.);
#902 = LINE('',#903,#904);
#903 = CARTESIAN_POINT('',(-15.,9.,1.));
#904 = VECTOR('',#905,1.);
#905 = DIRECTION('',(0.,0.,1.));
#906 = PLANE('',#907);
#907 = AXIS2_PLACEMENT_3D('',#908,#909,#910);
#908 = CARTESIAN_POINT('',(-15.,1.,1.));
#909 = DIRECTION('',(1.,0.,-0.));
#910 = DIRECTION('',(0.,0.,1.));
#911 = ADVANCED_FACE('',(#912),#938,.T.);
#912 = FACE_BOUND('',#913,.T.);
#913 = EDGE_LOOP('',(#914,#920,#921,#929,#935,#936,#937));
#914 = ORIENTED_EDGE('',*,*,#915,.F.);
#915 = EDGE_CURVE('',#860,#892,#916,.T.);
#916 = LINE('',#917,#918);
#917 = CARTESIAN_POINT('',(-26.,9.,11.));
#918 = VECTOR('',#919,1.);
#919 = DIRECTION('',(1.,0.,-0.));
#920 = ORIENTED_EDGE('',*,*,#859,.T.);
#921 = ORIENTED_EDGE('',*,*,#922,.T.);
#922 = EDGE_CURVE('',#852,#923,#925,.T.);
#923 = VERTEX_POINT('',#924);
#924 = CARTESIAN_POINT('',(-26.,4.,11.));
#925 = LINE('',#926,#927);
#926 = CARTESIAN_POINT('',(-24.25,4.,11.));
#927 = VECTOR('',#928,1.);
#928 = DIRECTION('',(-1.,0.,0.));
#929 = ORIENTED_EDGE('',*,*,#930,.F.);
#930 = EDGE_CURVE('',#693,#923,#931,.T.);
#931 = LINE('',#932,#933);
#932 = CARTESIAN_POINT('',(-26.,1.,11.));
#933 = VECTOR('',#934,1.);
#934 = DIRECTION('',(-0.,1.,0.));
#935 = ORIENTED_EDGE('',*,*,#692,.T.);
#936 = ORIENTED_EDGE('',*,*,#291,.F.);
#937 = ORIENTED_EDGE('',*,*,#891,.T.);
#938 = PLANE('',#939);
#939 = AXIS2_PLACEMENT_3D('',#940,#941,#942);
#940 = CARTESIAN_POINT('',(-26.,1.,11.));
#941 = DIRECTION('',(0.,0.,1.));
#942 = DIRECTION('',(1.,0.,-0.));
#943 = ADVANCED_FACE('',(#944),#969,.T.);
#944 = FACE_BOUND('',#945,.T.);
#945 = EDGE_LOOP('',(#946,#955,#962,#967,#968));
#946 = ORIENTED_EDGE('',*,*,#947,.F.);
#947 = EDGE_CURVE('',#948,#678,#950,.T.);
#948 = VERTEX_POINT('',#949);
#949 = CARTESIAN_POINT('',(-9.792343948208,9.,12.));
#950 = CIRCLE('',#951,13.3);
#951 = AXIS2_PLACEMENT_3D('',#952,#953,#954);
#952 = CARTESIAN_POINT('',(0.,0.,12.));
#953 = DIRECTION('',(0.,0.,1.));
#954 = DIRECTION('',(1.,0.,-0.));
#955 = ORIENTED_EDGE('',*,*,#956,.F.);
#956 = EDGE_CURVE('',#957,#948,#959,.T.);
#957 = VERTEX_POINT('',#958);
#958 = CARTESIAN_POINT('',(-10.,9.,12.));
#959 = B_SPLINE_CURVE_WITH_KNOTS('',1,(#960,#961),.UNSPECIFIED.,.F.,.F.,
  (2,2),(0.,20.),.PIECEWISE_BEZIER_KNOTS.);
#960 = CARTESIAN_POINT('',(-10.,9.,12.));
#961 = CARTESIAN_POINT('',(10.,9.,12.));
#962 = ORIENTED_EDGE('',*,*,#963,.T.);
#963 = EDGE_CURVE('',#957,#309,#964,.T.);
#964 = B_SPLINE_CURVE_WITH_KNOTS('',1,(#965,#966),.UNSPECIFIED.,.F.,.F.,
  (2,2),(0.,6.),.PIECEWISE_BEZIER_KNOTS.);
#965 = CARTESIAN_POINT('',(-10.,9.,12.));
#966 = CARTESIAN_POINT('',(-10.,15.,12.));
#967 = ORIENTED_EDGE('',*,*,#308,.T.);
#968 = ORIENTED_EDGE('',*,*,#685,.F.);
#969 = PLANE('',#970);
#970 = AXIS2_PLACEMENT_3D('',#971,#972,#973);
#971 = CARTESIAN_POINT('',(0.,0.,12.));
#972 = DIRECTION('',(0.,0.,1.));
#973 = DIRECTION('',(1.,0.,-0.));
#974 = ADVANCED_FACE('',(#975),#990,.T.);
#975 = FACE_BOUND('',#976,.T.);
#976 = EDGE_LOOP('',(#977,#978,#985));
#977 = ORIENTED_EDGE('',*,*,#317,.T.);
#978 = ORIENTED_EDGE('',*,*,#979,.T.);
#979 = EDGE_CURVE('',#309,#980,#982,.T.);
#980 = VERTEX_POINT('',#981);
#981 = CARTESIAN_POINT('',(-10.,15.,12.));
#982 = B_SPLINE_CURVE_WITH_KNOTS('',1,(#983,#984),.UNSPECIFIED.,.F.,.F.,
  (2,2),(0.,6.),.PIECEWISE_BEZIER_KNOTS.);
#983 = CARTESIAN_POINT('',(-10.,9.,12.));
#984 = CARTESIAN_POINT('',(-10.,15.,12.));
#985 = ORIENTED_EDGE('',*,*,#986,.T.);
#986 = EDGE_CURVE('',#980,#318,#987,.T.);
#987 = B_SPLINE_CURVE_WITH_KNOTS('',1,(#988,#989),.UNSPECIFIED.,.F.,.F.,
  (2,2),(0.,20.),.PIECEWISE_BEZIER_KNOTS.);
#988 = CARTESIAN_POINT('',(-10.,15.,12.));
#989 = CARTESIAN_POINT('',(10.,15.,12.));
#990 = B_SPLINE_SURFACE_WITH_KNOTS('',1,1,(
    (#991,#992)
    ,(#993,#994
    )),.UNSPECIFIED.,.F.,.F.,.F.,(2,2),(2,2),(0.,20.),(-6.,0.),
  .PIECEWISE_BEZIER_KNOTS.);
#991 = CARTESIAN_POINT('',(-10.,15.,12.));
#992 = CARTESIAN_POINT('',(-10.,9.,12.));
#993 = CARTESIAN_POINT('',(10.,15.,12.));
#994 = CARTESIAN_POINT('',(10.,9.,12.));
#995 = ADVANCED_FACE('',(#996),#1004,.T.);
#996 = FACE_BOUND('',#997,.T.);
#997 = EDGE_LOOP('',(#998,#1003));
#998 = ORIENTED_EDGE('',*,*,#999,.T.);
#999 = EDGE_CURVE('',#318,#327,#1000,.T.);
#1000 = B_SPLINE_CURVE_WITH_KNOTS('',1,(#1001,#1002),.UNSPECIFIED.,.F.,
  .F.,(2,2),(0.,20.),.PIECEWISE_BEZIER_KNOTS.);
#1001 = CARTESIAN_POINT('',(-10.,15.,12.));
#1002 = CARTESIAN_POINT('',(10.,15.,12.));
#1003 = ORIENTED_EDGE('',*,*,#326,.T.);
#1004 = PLANE('',#1005);
#1005 = AXIS2_PLACEMENT_3D('',#1006,#1007,#1008);
#1006 = CARTESIAN_POINT('',(0.,0.,12.));
#1007 = DIRECTION('',(0.,0.,1.));
#1008 = DIRECTION('',(1.,0.,-0.));
#1009 = ADVANCED_FACE('',(#1010),#1025,.T.);
#1010 = FACE_BOUND('',#1011,.T.);
#1011 = EDGE_LOOP('',(#1012,#1013,#1020));
#1012 = ORIENTED_EDGE('',*,*,#335,.T.);
#1013 = ORIENTED_EDGE('',*,*,#1014,.T.);
#1014 = EDGE_CURVE('',#327,#1015,#1017,.T.);
#1015 = VERTEX_POINT('',#1016);
#1016 = CARTESIAN_POINT('',(10.,15.,12.));
#1017 = B_SPLINE_CURVE_WITH_KNOTS('',1,(#1018,#1019),.UNSPECIFIED.,.F.,
  .F.,(2,2),(0.,20.),.PIECEWISE_BEZIER_KNOTS.);
#1018 = CARTESIAN_POINT('',(-10.,15.,12.));
#1019 = CARTESIAN_POINT('',(10.,15.,12.));
#1020 = ORIENTED_EDGE('',*,*,#1021,.F.);
#1021 = EDGE_CURVE('',#336,#1015,#1022,.T.);
#1022 = B_SPLINE_CURVE_WITH_KNOTS('',1,(#1023,#1024),.UNSPECIFIED.,.F.,
  .F.,(2,2),(0.,6.),.PIECEWISE_BEZIER_KNOTS.);
#1023 = CARTESIAN_POINT('',(10.,9.,12.));
#1024 = CARTESIAN_POINT('',(10.,15.,12.));
#1025 = B_SPLINE_SURFACE_WITH_KNOTS('',1,1,(
    (#1026,#1027)
    ,(#1028,#1029
    )),.UNSPECIFIED.,.F.,.F.,.F.,(2,2),(2,2),(0.,20.),(-6.,0.),
  .PIECEWISE_BEZIER_KNOTS.);
#1026 = CARTESIAN_POINT('',(-10.,15.,12.));
#1027 = CARTESIAN_POINT('',(-10.,9.,12.));
#1028 = CARTESIAN_POINT('',(10.,15.,12.));
#1029 = CARTESIAN_POINT('',(10.,9.,12.));
#1030 = ADVANCED_FACE('',(#1031),#1086,.T.);
#1031 = FACE_BOUND('',#1032,.T.);
#1032 = EDGE_LOOP('',(#1033,#1040,#1050,#1055,#1056,#1068,#1075,#1085));
#1033 = ORIENTED_EDGE('',*,*,#1034,.F.);
#1034 = EDGE_CURVE('',#1035,#502,#1037,.T.);
#1035 = VERTEX_POINT('',#1036);
#1036 = CARTESIAN_POINT('',(-10.,-9.,28.));
#1037 = B_SPLINE_CURVE_WITH_KNOTS('',1,(#1038,#1039),.UNSPECIFIED.,.F.,
  .F.,(2,2),(0.,16.),.PIECEWISE_BEZIER_KNOTS.);
#1038 = CARTESIAN_POINT('',(-10.,-9.,28.));
#1039 = CARTESIAN_POINT('',(-10.,-9.,12.));
#1040 = ORIENTED_EDGE('',*,*,#1041,.T.);
#1041 = EDGE_CURVE('',#1035,#1042,#1044,.T.);
#1042 = VERTEX_POINT('',#1043);
#1043 = CARTESIAN_POINT('',(10.,-9.,28.));
#1044 = ( BOUNDED_CURVE() B_SPLINE_CURVE(2,(#1045,#1046,#1047,#1048,
#1049),.UNSPECIFIED.,.F.,.F.) B_SPLINE_CURVE_WITH_KNOTS((3,2,3),(
    3.14159265359,4.712388980385,6.28318530718),
.PIECEWISE_BEZIER_KNOTS.) CURVE() GEOMETRIC_REPRESENTATION_ITEM() 
RATIONAL_B_SPLINE_CURVE((1.,0.707106781187,1.,0.707106781187,1.)) 
REPRESENTATION_ITEM('') );
#1045 = CARTESIAN_POINT('',(-10.,-9.,28.));
#1046 = CARTESIAN_POINT('',(-10.,-9.,38.));
#1047 = CARTESIAN_POINT('',(-1.836970198721E-15,-9.,38.));
#1048 = CARTESIAN_POINT('',(10.,-9.,38.));
#1049 = CARTESIAN_POINT('',(10.,-9.,28.));
#1050 = ORIENTED_EDGE('',*,*,#1051,.T.);
#1051 = EDGE_CURVE('',#1042,#577,#1052,.T.);
#1052 = B_SPLINE_CURVE_WITH_KNOTS('',1,(#1053,#1054),.UNSPECIFIED.,.F.,
  .F.,(2,2),(0.,16.),.PIECEWISE_BEZIER_KNOTS.);
#1053 = CARTESIAN_POINT('',(10.,-9.,28.));
#1054 = CARTESIAN_POINT('',(10.,-9.,12.));
#1055 = ORIENTED_EDGE('',*,*,#576,.F.);
#1056 = ORIENTED_EDGE('',*,*,#1057,.F.);
#1057 = EDGE_CURVE('',#1058,#566,#1060,.T.);
#1058 = VERTEX_POINT('',#1059);
#1059 = CARTESIAN_POINT('',(9.792343948208,-9.,13.));
#1060 = B_SPLINE_CURVE_WITH_KNOTS('',3,(#1061,#1062,#1063,#1064,#1065,
    #1066,#1067),.UNSPECIFIED.,.F.,.F.,(4,1,1,1,4),(0.,0.1680004992,
    0.5580002652,0.9220000468,1.),.UNSPECIFIED.);
#1061 = CARTESIAN_POINT('',(9.792343948208,-9.,13.0000006));
#1062 = CARTESIAN_POINT('',(9.792343948208,-9.,12.9440004));
#1063 = CARTESIAN_POINT('',(9.792343948208,-9.,12.7580002));
#1064 = CARTESIAN_POINT('',(9.792343948208,-9.,12.450666666667));
#1065 = CARTESIAN_POINT('',(9.792343948208,-9.,12.173333333333));
#1066 = CARTESIAN_POINT('',(9.792343948208,-9.,12.026));
#1067 = CARTESIAN_POINT('',(9.792343948208,-9.,12.));
#1068 = ORIENTED_EDGE('',*,*,#1069,.T.);
#1069 = EDGE_CURVE('',#1058,#1070,#1072,.T.);
#1070 = VERTEX_POINT('',#1071);
#1071 = CARTESIAN_POINT('',(-9.792343948208,-9.,13.));
#1072 = B_SPLINE_CURVE_WITH_KNOTS('',1,(#1073,#1074),.UNSPECIFIED.,.F.,
  .F.,(2,2),(0.,1.),.PIECEWISE_BEZIER_KNOTS.);
#1073 = CARTESIAN_POINT('',(10.,-9.,13.));
#1074 = CARTESIAN_POINT('',(-10.,-9.,13.));
#1075 = ORIENTED_EDGE('',*,*,#1076,.T.);
#1076 = EDGE_CURVE('',#1070,#509,#1077,.T.);
#1077 = B_SPLINE_CURVE_WITH_KNOTS('',3,(#1078,#1079,#1080,#1081,#1082,
    #1083,#1084),.UNSPECIFIED.,.F.,.F.,(4,1,1,1,4),(0.,0.1680004992,
    0.5580002652,0.9220000468,1.),.UNSPECIFIED.);
#1078 = CARTESIAN_POINT('',(-9.792343948208,-9.,13.0000006));
#1079 = CARTESIAN_POINT('',(-9.792343948208,-9.,12.9440004));
#1080 = CARTESIAN_POINT('',(-9.792343948208,-9.,12.7580002));
#1081 = CARTESIAN_POINT('',(-9.792343948208,-9.,12.450666666667));
#1082 = CARTESIAN_POINT('',(-9.792343948208,-9.,12.173333333333));
#1083 = CARTESIAN_POINT('',(-9.792343948208,-9.,12.026));
#1084 = CARTESIAN_POINT('',(-9.792343948208,-9.,12.));
#1085 = ORIENTED_EDGE('',*,*,#508,.F.);
#1086 = B_SPLINE_SURFACE_WITH_KNOTS('',1,1,(
    (#1087,#1088)
    ,(#1089,#1090
    )),.UNSPECIFIED.,.F.,.F.,.F.,(2,2),(2,2),(-10.,10.),(-14.9121331615,
    11.087866838499),.PIECEWISE_BEZIER_KNOTS.);
#1087 = CARTESIAN_POINT('',(-10.,-9.,38.));
#1088 = CARTESIAN_POINT('',(-10.,-9.,12.));
#1089 = CARTESIAN_POINT('',(10.,-9.,38.));
#1090 = CARTESIAN_POINT('',(10.,-9.,12.));
#1091 = ADVANCED_FACE('',(#1092),#1109,.F.);
#1092 = FACE_BOUND('',#1093,.F.);
#1093 = EDGE_LOOP('',(#1094,#1101,#1106,#1107,#1108));
#1094 = ORIENTED_EDGE('',*,*,#1095,.F.);
#1095 = EDGE_CURVE('',#1096,#1035,#1098,.T.);
#1096 = VERTEX_POINT('',#1097);
#1097 = CARTESIAN_POINT('',(-10.,-15.,28.));
#1098 = B_SPLINE_CURVE_WITH_KNOTS('',1,(#1099,#1100),.UNSPECIFIED.,.F.,
  .F.,(2,2),(0.,6.),.PIECEWISE_BEZIER_KNOTS.);
#1099 = CARTESIAN_POINT('',(-10.,-15.,28.));
#1100 = CARTESIAN_POINT('',(-10.,-9.,28.));
#1101 = ORIENTED_EDGE('',*,*,#1102,.T.);
#1102 = EDGE_CURVE('',#1096,#655,#1103,.T.);
#1103 = B_SPLINE_CURVE_WITH_KNOTS('',1,(#1104,#1105),.UNSPECIFIED.,.F.,
  .F.,(2,2),(0.,16.),.PIECEWISE_BEZIER_KNOTS.);
#1104 = CARTESIAN_POINT('',(-10.,-15.,28.));
#1105 = CARTESIAN_POINT('',(-10.,-15.,12.));
#1106 = ORIENTED_EDGE('',*,*,#661,.T.);
#1107 = ORIENTED_EDGE('',*,*,#501,.T.);
#1108 = ORIENTED_EDGE('',*,*,#1034,.F.);
#1109 = B_SPLINE_SURFACE_WITH_KNOTS('',1,1,(
    (#1110,#1111)
    ,(#1112,#1113
    )),.UNSPECIFIED.,.F.,.F.,.F.,(2,2),(2,2),(0.,16.),(0.,6.),
  .PIECEWISE_BEZIER_KNOTS.);
#1110 = CARTESIAN_POINT('',(-10.,-15.,28.));
#1111 = CARTESIAN_POINT('',(-10.,-9.,28.));
#1112 = CARTESIAN_POINT('',(-10.,-15.,12.));
#1113 = CARTESIAN_POINT('',(-10.,-9.,12.));
#1114 = ADVANCED_FACE('',(#1115),#1170,.T.);
#1115 = FACE_BOUND('',#1116,.T.);
#1116 = EDGE_LOOP('',(#1117,#1129,#1134,#1135,#1147,#1154,#1164,#1165));
#1117 = ORIENTED_EDGE('',*,*,#1118,.F.);
#1118 = EDGE_CURVE('',#1119,#1121,#1123,.T.);
#1119 = VERTEX_POINT('',#1120);
#1120 = CARTESIAN_POINT('',(-10.,9.,28.));
#1121 = VERTEX_POINT('',#1122);
#1122 = CARTESIAN_POINT('',(10.,9.,28.));
#1123 = ( BOUNDED_CURVE() B_SPLINE_CURVE(2,(#1124,#1125,#1126,#1127,
#1128),.UNSPECIFIED.,.F.,.F.) B_SPLINE_CURVE_WITH_KNOTS((3,2,3),(
    3.14159265359,4.712388980385,6.28318530718),
.PIECEWISE_BEZIER_KNOTS.) CURVE() GEOMETRIC_REPRESENTATION_ITEM() 
RATIONAL_B_SPLINE_CURVE((1.,0.707106781187,1.,0.707106781187,1.)) 
REPRESENTATION_ITEM('') );
#1124 = CARTESIAN_POINT('',(-10.,9.,28.));
#1125 = CARTESIAN_POINT('',(-10.,9.,38.));
#1126 = CARTESIAN_POINT('',(-1.836970198721E-15,9.,38.));
#1127 = CARTESIAN_POINT('',(10.,9.,38.));
#1128 = CARTESIAN_POINT('',(10.,9.,28.));
#1129 = ORIENTED_EDGE('',*,*,#1130,.T.);
#1130 = EDGE_CURVE('',#1119,#957,#1131,.T.);
#1131 = B_SPLINE_CURVE_WITH_KNOTS('',1,(#1132,#1133),.UNSPECIFIED.,.F.,
  .F.,(2,2),(0.,16.),.PIECEWISE_BEZIER_KNOTS.);
#1132 = CARTESIAN_POINT('',(-10.,9.,28.));
#1133 = CARTESIAN_POINT('',(-10.,9.,12.));
#1134 = ORIENTED_EDGE('',*,*,#956,.T.);
#1135 = ORIENTED_EDGE('',*,*,#1136,.F.);
#1136 = EDGE_CURVE('',#1137,#948,#1139,.T.);
#1137 = VERTEX_POINT('',#1138);
#1138 = CARTESIAN_POINT('',(-9.792343948208,9.,13.));
#1139 = B_SPLINE_CURVE_WITH_KNOTS('',3,(#1140,#1141,#1142,#1143,#1144,
    #1145,#1146),.UNSPECIFIED.,.F.,.F.,(4,1,1,1,4),(0.,0.1680004992,
    0.5580002652,0.9220000468,1.),.UNSPECIFIED.);
#1140 = CARTESIAN_POINT('',(-9.792343948208,9.,13.0000006));
#1141 = CARTESIAN_POINT('',(-9.792343948208,9.,12.9440004));
#1142 = CARTESIAN_POINT('',(-9.792343948208,9.,12.7580002));
#1143 = CARTESIAN_POINT('',(-9.792343948208,9.,12.450666666667));
#1144 = CARTESIAN_POINT('',(-9.792343948208,9.,12.173333333333));
#1145 = CARTESIAN_POINT('',(-9.792343948208,9.,12.026));
#1146 = CARTESIAN_POINT('',(-9.792343948208,9.,12.));
#1147 = ORIENTED_EDGE('',*,*,#1148,.T.);
#1148 = EDGE_CURVE('',#1137,#1149,#1151,.T.);
#1149 = VERTEX_POINT('',#1150);
#1150 = CARTESIAN_POINT('',(9.792343948208,9.,13.));
#1151 = B_SPLINE_CURVE_WITH_KNOTS('',1,(#1152,#1153),.UNSPECIFIED.,.F.,
  .F.,(2,2),(0.,1.),.PIECEWISE_BEZIER_KNOTS.);
#1152 = CARTESIAN_POINT('',(-10.,9.,13.));
#1153 = CARTESIAN_POINT('',(10.,9.,13.));
#1154 = ORIENTED_EDGE('',*,*,#1155,.T.);
#1155 = EDGE_CURVE('',#1149,#598,#1156,.T.);
#1156 = B_SPLINE_CURVE_WITH_KNOTS('',3,(#1157,#1158,#1159,#1160,#1161,
    #1162,#1163),.UNSPECIFIED.,.F.,.F.,(4,1,1,1,4),(0.,0.1680004992,
    0.5580002652,0.9220000468,1.),.UNSPECIFIED.);
#1157 = CARTESIAN_POINT('',(9.792343948208,9.,13.0000006));
#1158 = CARTESIAN_POINT('',(9.792343948208,9.,12.9440004));
#1159 = CARTESIAN_POINT('',(9.792343948208,9.,12.7580002));
#1160 = CARTESIAN_POINT('',(9.792343948208,9.,12.450666666667));
#1161 = CARTESIAN_POINT('',(9.792343948208,9.,12.173333333333));
#1162 = CARTESIAN_POINT('',(9.792343948208,9.,12.026));
#1163 = CARTESIAN_POINT('',(9.792343948208,9.,12.));
#1164 = ORIENTED_EDGE('',*,*,#597,.T.);
#1165 = ORIENTED_EDGE('',*,*,#1166,.F.);
#1166 = EDGE_CURVE('',#1121,#591,#1167,.T.);
#1167 = B_SPLINE_CURVE_WITH_KNOTS('',1,(#1168,#1169),.UNSPECIFIED.,.F.,
  .F.,(2,2),(0.,16.),.PIECEWISE_BEZIER_KNOTS.);
#1168 = CARTESIAN_POINT('',(10.,9.,28.));
#1169 = CARTESIAN_POINT('',(10.,9.,12.));
#1170 = B_SPLINE_SURFACE_WITH_KNOTS('',1,1,(
    (#1171,#1172)
    ,(#1173,#1174
    )),.UNSPECIFIED.,.F.,.F.,.F.,(2,2),(2,2),(-10.,10.),(-14.9121331615,
    11.087866838499),.PIECEWISE_BEZIER_KNOTS.);
#1171 = CARTESIAN_POINT('',(10.,9.,38.));
#1172 = CARTESIAN_POINT('',(10.,9.,12.));
#1173 = CARTESIAN_POINT('',(-10.,9.,38.));
#1174 = CARTESIAN_POINT('',(-10.,9.,12.));
#1175 = ADVANCED_FACE('',(#1176),#1193,.T.);
#1176 = FACE_BOUND('',#1177,.T.);
#1177 = EDGE_LOOP('',(#1178,#1185,#1186,#1187,#1188));
#1178 = ORIENTED_EDGE('',*,*,#1179,.F.);
#1179 = EDGE_CURVE('',#1121,#1180,#1182,.T.);
#1180 = VERTEX_POINT('',#1181);
#1181 = CARTESIAN_POINT('',(10.,15.,28.));
#1182 = B_SPLINE_CURVE_WITH_KNOTS('',1,(#1183,#1184),.UNSPECIFIED.,.F.,
  .F.,(2,2),(0.,6.),.PIECEWISE_BEZIER_KNOTS.);
#1183 = CARTESIAN_POINT('',(10.,9.,28.));
#1184 = CARTESIAN_POINT('',(10.,15.,28.));
#1185 = ORIENTED_EDGE('',*,*,#1166,.T.);
#1186 = ORIENTED_EDGE('',*,*,#590,.T.);
#1187 = ORIENTED_EDGE('',*,*,#1021,.T.);
#1188 = ORIENTED_EDGE('',*,*,#1189,.F.);
#1189 = EDGE_CURVE('',#1180,#1015,#1190,.T.);
#1190 = B_SPLINE_CURVE_WITH_KNOTS('',1,(#1191,#1192),.UNSPECIFIED.,.F.,
  .F.,(2,2),(0.,16.),.PIECEWISE_BEZIER_KNOTS.);
#1191 = CARTESIAN_POINT('',(10.,15.,28.));
#1192 = CARTESIAN_POINT('',(10.,15.,12.));
#1193 = B_SPLINE_SURFACE_WITH_KNOTS('',1,1,(
    (#1194,#1195)
    ,(#1196,#1197
    )),.UNSPECIFIED.,.F.,.F.,.F.,(2,2),(2,2),(-2.449293598295E-15,16.),(
    0.,6.),.PIECEWISE_BEZIER_KNOTS.);
#1194 = CARTESIAN_POINT('',(10.,9.,28.));
#1195 = CARTESIAN_POINT('',(10.,15.,28.));
#1196 = CARTESIAN_POINT('',(10.,9.,12.));
#1197 = CARTESIAN_POINT('',(10.,15.,12.));
#1198 = ADVANCED_FACE('',(#1199),#1216,.T.);
#1199 = FACE_BOUND('',#1200,.T.);
#1200 = EDGE_LOOP('',(#1201,#1208,#1213,#1214,#1215));
#1201 = ORIENTED_EDGE('',*,*,#1202,.F.);
#1202 = EDGE_CURVE('',#1203,#1042,#1205,.T.);
#1203 = VERTEX_POINT('',#1204);
#1204 = CARTESIAN_POINT('',(10.,-15.,28.));
#1205 = B_SPLINE_CURVE_WITH_KNOTS('',1,(#1206,#1207),.UNSPECIFIED.,.F.,
  .F.,(2,2),(0.,6.),.PIECEWISE_BEZIER_KNOTS.);
#1206 = CARTESIAN_POINT('',(10.,-15.,28.));
#1207 = CARTESIAN_POINT('',(10.,-9.,28.));
#1208 = ORIENTED_EDGE('',*,*,#1209,.T.);
#1209 = EDGE_CURVE('',#1203,#620,#1210,.T.);
#1210 = B_SPLINE_CURVE_WITH_KNOTS('',1,(#1211,#1212),.UNSPECIFIED.,.F.,
  .F.,(2,2),(0.,16.),.PIECEWISE_BEZIER_KNOTS.);
#1211 = CARTESIAN_POINT('',(10.,-15.,28.));
#1212 = CARTESIAN_POINT('',(10.,-15.,12.));
#1213 = ORIENTED_EDGE('',*,*,#627,.T.);
#1214 = ORIENTED_EDGE('',*,*,#583,.T.);
#1215 = ORIENTED_EDGE('',*,*,#1051,.F.);
#1216 = B_SPLINE_SURFACE_WITH_KNOTS('',1,1,(
    (#1217,#1218)
    ,(#1219,#1220
    )),.UNSPECIFIED.,.F.,.F.,.F.,(2,2),(2,2),(-2.449293598295E-15,16.),(
    0.,6.),.PIECEWISE_BEZIER_KNOTS.);
#1217 = CARTESIAN_POINT('',(10.,-15.,28.));
#1218 = CARTESIAN_POINT('',(10.,-9.,28.));
#1219 = CARTESIAN_POINT('',(10.,-15.,12.));
#1220 = CARTESIAN_POINT('',(10.,-9.,12.));
#1221 = ADVANCED_FACE('',(#1222,#1237),#1251,.T.);
#1222 = FACE_BOUND('',#1223,.T.);
#1223 = EDGE_LOOP('',(#1224,#1232,#1233,#1234,#1235,#1236));
#1224 = ORIENTED_EDGE('',*,*,#1225,.F.);
#1225 = EDGE_CURVE('',#1096,#1203,#1226,.T.);
#1226 = ( BOUNDED_CURVE() B_SPLINE_CURVE(2,(#1227,#1228,#1229,#1230,
#1231),.UNSPECIFIED.,.F.,.F.) B_SPLINE_CURVE_WITH_KNOTS((3,2,3),(
    3.14159265359,4.712388980385,6.28318530718),
.PIECEWISE_BEZIER_KNOTS.) CURVE() GEOMETRIC_REPRESENTATION_ITEM() 
RATIONAL_B_SPLINE_CURVE((1.,0.707106781187,1.,0.707106781187,1.)) 
REPRESENTATION_ITEM('') );
#1227 = CARTESIAN_POINT('',(-10.,-15.,28.));
#1228 = CARTESIAN_POINT('',(-10.,-15.,38.));
#1229 = CARTESIAN_POINT('',(-1.836970198721E-15,-15.,38.));
#1230 = CARTESIAN_POINT('',(10.,-15.,38.));
#1231 = CARTESIAN_POINT('',(10.,-15.,28.));
#1232 = ORIENTED_EDGE('',*,*,#1102,.T.);
#1233 = ORIENTED_EDGE('',*,*,#654,.T.);
#1234 = ORIENTED_EDGE('',*,*,#640,.T.);
#1235 = ORIENTED_EDGE('',*,*,#619,.T.);
#1236 = ORIENTED_EDGE('',*,*,#1209,.F.);
#1237 = FACE_BOUND('',#1238,.T.);
#1238 = EDGE_LOOP('',(#1239));
#1239 = ORIENTED_EDGE('',*,*,#1240,.T.);
#1240 = EDGE_CURVE('',#1241,#1241,#1243,.T.);
#1241 = VERTEX_POINT('',#1242);
#1242 = CARTESIAN_POINT('',(8.,-15.,28.));
#1243 = ( BOUNDED_CURVE() B_SPLINE_CURVE(2,(#1244,#1245,#1246,#1247,
#1248,#1249,#1250),.UNSPECIFIED.,.T.,.F.) B_SPLINE_CURVE_WITH_KNOTS((1,2
    ,2,2,2,1),(-2.094395102393,0.,2.094395102393,4.188790204786,
6.28318530718,8.377580409573),.UNSPECIFIED.) CURVE() 
GEOMETRIC_REPRESENTATION_ITEM() RATIONAL_B_SPLINE_CURVE((1.,0.5,1.,0.5,
1.,0.5,1.)) REPRESENTATION_ITEM('') );
#1244 = CARTESIAN_POINT('',(8.,-15.,28.));
#1245 = CARTESIAN_POINT('',(8.,-15.,14.143593539449));
#1246 = CARTESIAN_POINT('',(-4.,-15.,21.071796769724));
#1247 = CARTESIAN_POINT('',(-16.,-15.,28.));
#1248 = CARTESIAN_POINT('',(-4.,-15.,34.928203230276));
#1249 = CARTESIAN_POINT('',(8.,-15.,41.856406460551));
#1250 = CARTESIAN_POINT('',(8.,-15.,28.));
#1251 = B_SPLINE_SURFACE_WITH_KNOTS('',1,1,(
    (#1252,#1253)
    ,(#1254,#1255
    )),.UNSPECIFIED.,.F.,.F.,.F.,(2,2),(2,2),(-10.,10.),(-14.9121331615,
    11.087866838499),.PIECEWISE_BEZIER_KNOTS.);
#1252 = CARTESIAN_POINT('',(10.,-15.,38.));
#1253 = CARTESIAN_POINT('',(10.,-15.,12.));
#1254 = CARTESIAN_POINT('',(-10.,-15.,38.));
#1255 = CARTESIAN_POINT('',(-10.,-15.,12.));
#1256 = ADVANCED_FACE('',(#1257),#1275,.F.);
#1257 = FACE_BOUND('',#1258,.F.);
#1258 = EDGE_LOOP('',(#1259,#1260,#1268,#1274));
#1259 = ORIENTED_EDGE('',*,*,#700,.F.);
#1260 = ORIENTED_EDGE('',*,*,#1261,.T.);
#1261 = EDGE_CURVE('',#701,#1262,#1264,.T.);
#1262 = VERTEX_POINT('',#1263);
#1263 = CARTESIAN_POINT('',(-26.,4.,8.497999199359));
#1264 = LINE('',#1265,#1266);
#1265 = CARTESIAN_POINT('',(-26.,-20.,8.497999199359));
#1266 = VECTOR('',#1267,1.);
#1267 = DIRECTION('',(0.,1.,0.));
#1268 = ORIENTED_EDGE('',*,*,#1269,.T.);
#1269 = EDGE_CURVE('',#1262,#923,#1270,.T.);
#1270 = LINE('',#1271,#1272);
#1271 = CARTESIAN_POINT('',(-26.,4.,3.5));
#1272 = VECTOR('',#1273,1.);
#1273 = DIRECTION('',(0.,-1.110223024625E-16,1.));
#1274 = ORIENTED_EDGE('',*,*,#930,.F.);
#1275 = PLANE('',#1276);
#1276 = AXIS2_PLACEMENT_3D('',#1277,#1278,#1279);
#1277 = CARTESIAN_POINT('',(-26.,1.,1.));
#1278 = DIRECTION('',(1.,0.,-0.));
#1279 = DIRECTION('',(0.,0.,1.));
#1280 = ADVANCED_FACE('',(#1281),#1310,.F.);
#1281 = FACE_BOUND('',#1282,.F.);
#1282 = EDGE_LOOP('',(#1283,#1291,#1300,#1307,#1308,#1309));
#1283 = ORIENTED_EDGE('',*,*,#1284,.T.);
#1284 = EDGE_CURVE('',#718,#1285,#1287,.T.);
#1285 = VERTEX_POINT('',#1286);
#1286 = CARTESIAN_POINT('',(-26.,4.,3.502000800641));
#1287 = LINE('',#1288,#1289);
#1288 = CARTESIAN_POINT('',(-26.,-20.,3.502000800641));
#1289 = VECTOR('',#1290,1.);
#1290 = DIRECTION('',(0.,1.,0.));
#1291 = ORIENTED_EDGE('',*,*,#1292,.F.);
#1292 = EDGE_CURVE('',#1293,#1285,#1295,.T.);
#1293 = VERTEX_POINT('',#1294);
#1294 = CARTESIAN_POINT('',(-22.5,4.,10.3));
#1295 = CIRCLE('',#1296,4.3);
#1296 = AXIS2_PLACEMENT_3D('',#1297,#1298,#1299);
#1297 = CARTESIAN_POINT('',(-22.5,4.,6.));
#1298 = DIRECTION('',(0.,1.,0.));
#1299 = DIRECTION('',(0.,-0.,1.));
#1300 = ORIENTED_EDGE('',*,*,#1301,.F.);
#1301 = EDGE_CURVE('',#1262,#1293,#1302,.T.);
#1302 = CIRCLE('',#1303,4.3);
#1303 = AXIS2_PLACEMENT_3D('',#1304,#1305,#1306);
#1304 = CARTESIAN_POINT('',(-22.5,4.,6.));
#1305 = DIRECTION('',(0.,1.,0.));
#1306 = DIRECTION('',(0.,-0.,1.));
#1307 = ORIENTED_EDGE('',*,*,#1261,.F.);
#1308 = ORIENTED_EDGE('',*,*,#708,.T.);
#1309 = ORIENTED_EDGE('',*,*,#717,.T.);
#1310 = CYLINDRICAL_SURFACE('',#1311,4.3);
#1311 = AXIS2_PLACEMENT_3D('',#1312,#1313,#1314);
#1312 = CARTESIAN_POINT('',(-22.5,-20.,6.));
#1313 = DIRECTION('',(0.,1.,0.));
#1314 = DIRECTION('',(0.,-0.,1.));
#1315 = ADVANCED_FACE('',(#1316),#1327,.F.);
#1316 = FACE_BOUND('',#1317,.F.);
#1317 = EDGE_LOOP('',(#1318,#1319,#1320,#1326));
#1318 = ORIENTED_EDGE('',*,*,#726,.F.);
#1319 = ORIENTED_EDGE('',*,*,#774,.T.);
#1320 = ORIENTED_EDGE('',*,*,#1321,.T.);
#1321 = EDGE_CURVE('',#767,#1285,#1322,.T.);
#1322 = LINE('',#1323,#1324);
#1323 = CARTESIAN_POINT('',(-26.,4.,3.5));
#1324 = VECTOR('',#1325,1.);
#1325 = DIRECTION('',(0.,-1.110223024625E-16,1.));
#1326 = ORIENTED_EDGE('',*,*,#1284,.F.);
#1327 = PLANE('',#1328);
#1328 = AXIS2_PLACEMENT_3D('',#1329,#1330,#1331);
#1329 = CARTESIAN_POINT('',(-26.,1.,1.));
#1330 = DIRECTION('',(1.,0.,-0.));
#1331 = DIRECTION('',(0.,0.,1.));
#1332 = ADVANCED_FACE('',(#1333),#1338,.T.);
#1333 = FACE_BOUND('',#1334,.T.);
#1334 = EDGE_LOOP('',(#1335,#1336,#1337));
#1335 = ORIENTED_EDGE('',*,*,#806,.F.);
#1336 = ORIENTED_EDGE('',*,*,#748,.F.);
#1337 = ORIENTED_EDGE('',*,*,#836,.T.);
#1338 = PLANE('',#1339);
#1339 = AXIS2_PLACEMENT_3D('',#1340,#1341,#1342);
#1340 = CARTESIAN_POINT('',(-26.,9.,1.));
#1341 = DIRECTION('',(-0.,1.,0.));
#1342 = DIRECTION('',(0.,0.,1.));
#1343 = ADVANCED_FACE('',(#1344),#1354,.T.);
#1344 = FACE_BOUND('',#1345,.T.);
#1345 = EDGE_LOOP('',(#1346,#1347,#1348,#1349,#1350,#1351,#1352,#1353));
#1346 = ORIENTED_EDGE('',*,*,#851,.T.);
#1347 = ORIENTED_EDGE('',*,*,#820,.T.);
#1348 = ORIENTED_EDGE('',*,*,#766,.T.);
#1349 = ORIENTED_EDGE('',*,*,#1321,.T.);
#1350 = ORIENTED_EDGE('',*,*,#1292,.F.);
#1351 = ORIENTED_EDGE('',*,*,#1301,.F.);
#1352 = ORIENTED_EDGE('',*,*,#1269,.T.);
#1353 = ORIENTED_EDGE('',*,*,#922,.F.);
#1354 = PLANE('',#1355);
#1355 = AXIS2_PLACEMENT_3D('',#1356,#1357,#1358);
#1356 = CARTESIAN_POINT('',(-22.5,4.,6.));
#1357 = DIRECTION('',(0.,1.,1.110223024625E-16));
#1358 = DIRECTION('',(1.,0.,0.));
#1359 = ADVANCED_FACE('',(#1360),#1365,.T.);
#1360 = FACE_BOUND('',#1361,.T.);
#1361 = EDGE_LOOP('',(#1362,#1363,#1364));
#1362 = ORIENTED_EDGE('',*,*,#901,.F.);
#1363 = ORIENTED_EDGE('',*,*,#867,.T.);
#1364 = ORIENTED_EDGE('',*,*,#915,.T.);
#1365 = PLANE('',#1366);
#1366 = AXIS2_PLACEMENT_3D('',#1367,#1368,#1369);
#1367 = CARTESIAN_POINT('',(-26.,9.,1.));
#1368 = DIRECTION('',(-0.,1.,0.));
#1369 = DIRECTION('',(0.,0.,1.));
#1370 = ADVANCED_FACE('',(#1371),#1388,.F.);
#1371 = FACE_BOUND('',#1372,.F.);
#1372 = EDGE_LOOP('',(#1373,#1380,#1381,#1382,#1383));
#1373 = ORIENTED_EDGE('',*,*,#1374,.F.);
#1374 = EDGE_CURVE('',#1119,#1375,#1377,.T.);
#1375 = VERTEX_POINT('',#1376);
#1376 = CARTESIAN_POINT('',(-10.,15.,28.));
#1377 = B_SPLINE_CURVE_WITH_KNOTS('',1,(#1378,#1379),.UNSPECIFIED.,.F.,
  .F.,(2,2),(0.,6.),.PIECEWISE_BEZIER_KNOTS.);
#1378 = CARTESIAN_POINT('',(-10.,9.,28.));
#1379 = CARTESIAN_POINT('',(-10.,15.,28.));
#1380 = ORIENTED_EDGE('',*,*,#1130,.T.);
#1381 = ORIENTED_EDGE('',*,*,#963,.T.);
#1382 = ORIENTED_EDGE('',*,*,#979,.T.);
#1383 = ORIENTED_EDGE('',*,*,#1384,.F.);
#1384 = EDGE_CURVE('',#1375,#980,#1385,.T.);
#1385 = B_SPLINE_CURVE_WITH_KNOTS('',1,(#1386,#1387),.UNSPECIFIED.,.F.,
  .F.,(2,2),(0.,16.),.PIECEWISE_BEZIER_KNOTS.);
#1386 = CARTESIAN_POINT('',(-10.,15.,28.));
#1387 = CARTESIAN_POINT('',(-10.,15.,12.));
#1388 = B_SPLINE_SURFACE_WITH_KNOTS('',1,1,(
    (#1389,#1390)
    ,(#1391,#1392
    )),.UNSPECIFIED.,.F.,.F.,.F.,(2,2),(2,2),(0.,16.),(0.,6.),
  .PIECEWISE_BEZIER_KNOTS.);
#1389 = CARTESIAN_POINT('',(-10.,9.,28.));
#1390 = CARTESIAN_POINT('',(-10.,15.,28.));
#1391 = CARTESIAN_POINT('',(-10.,9.,12.));
#1392 = CARTESIAN_POINT('',(-10.,15.,12.));
#1393 = ADVANCED_FACE('',(#1394,#1409),#1453,.T.);
#1394 = FACE_BOUND('',#1395,.T.);
#1395 = EDGE_LOOP('',(#1396,#1404,#1405,#1406,#1407,#1408));
#1396 = ORIENTED_EDGE('',*,*,#1397,.T.);
#1397 = EDGE_CURVE('',#1375,#1180,#1398,.T.);
#1398 = ( BOUNDED_CURVE() B_SPLINE_CURVE(2,(#1399,#1400,#1401,#1402,
#1403),.UNSPECIFIED.,.F.,.F.) B_SPLINE_CURVE_WITH_KNOTS((3,2,3),(
    3.14159265359,4.712388980385,6.28318530718),
.PIECEWISE_BEZIER_KNOTS.) CURVE() GEOMETRIC_REPRESENTATION_ITEM() 
RATIONAL_B_SPLINE_CURVE((1.,0.707106781187,1.,0.707106781187,1.)) 
REPRESENTATION_ITEM('') );
#1399 = CARTESIAN_POINT('',(-10.,15.,28.));
#1400 = CARTESIAN_POINT('',(-10.,15.,38.));
#1401 = CARTESIAN_POINT('',(-1.836970198721E-15,15.,38.));
#1402 = CARTESIAN_POINT('',(10.,15.,38.));
#1403 = CARTESIAN_POINT('',(10.,15.,28.));
#1404 = ORIENTED_EDGE('',*,*,#1189,.T.);
#1405 = ORIENTED_EDGE('',*,*,#1014,.F.);
#1406 = ORIENTED_EDGE('',*,*,#999,.F.);
#1407 = ORIENTED_EDGE('',*,*,#986,.F.);
#1408 = ORIENTED_EDGE('',*,*,#1384,.F.);
#1409 = FACE_BOUND('',#1410,.T.);
#1410 = EDGE_LOOP('',(#1411,#1420,#1427,#1434,#1441,#1448));
#1411 = ORIENTED_EDGE('',*,*,#1412,.T.);
#1412 = EDGE_CURVE('',#1413,#1415,#1417,.T.);
#1413 = VERTEX_POINT('',#1414);
#1414 = CARTESIAN_POINT('',(-6.65,15.,31.839379290111));
#1415 = VERTEX_POINT('',#1416);
#1416 = CARTESIAN_POINT('',(-6.65,15.,24.160620709889));
#1417 = B_SPLINE_CURVE_WITH_KNOTS('',1,(#1418,#1419),.UNSPECIFIED.,.F.,
  .F.,(2,2),(-8.215135515917,-0.536376935695),.PIECEWISE_BEZIER_KNOTS.);
#1418 = CARTESIAN_POINT('',(-6.65,15.,31.839379290111));
#1419 = CARTESIAN_POINT('',(-6.65,15.,24.160620709889));
#1420 = ORIENTED_EDGE('',*,*,#1421,.T.);
#1421 = EDGE_CURVE('',#1415,#1422,#1424,.T.);
#1422 = VERTEX_POINT('',#1423);
#1423 = CARTESIAN_POINT('',(5.551115123126E-16,15.,20.321241419778));
#1424 = B_SPLINE_CURVE_WITH_KNOTS('',1,(#1425,#1426),.UNSPECIFIED.,.F.,
  .F.,(2,2),(-6.987102225542,0.69165635468),.PIECEWISE_BEZIER_KNOTS.);
#1425 = CARTESIAN_POINT('',(-6.65,15.,24.160620709889));
#1426 = CARTESIAN_POINT('',(6.661338147751E-16,15.,20.321241419778));
#1427 = ORIENTED_EDGE('',*,*,#1428,.T.);
#1428 = EDGE_CURVE('',#1422,#1429,#1431,.T.);
#1429 = VERTEX_POINT('',#1430);
#1430 = CARTESIAN_POINT('',(6.65,15.,24.160620709889));
#1431 = B_SPLINE_CURVE_WITH_KNOTS('',1,(#1432,#1433),.UNSPECIFIED.,.F.,
  .F.,(2,2),(-4.531035644791,3.147722935431),.PIECEWISE_BEZIER_KNOTS.);
#1432 = CARTESIAN_POINT('',(4.440892098501E-16,15.,20.321241419778));
#1433 = CARTESIAN_POINT('',(6.65,15.,24.160620709889));
#1434 = ORIENTED_EDGE('',*,*,#1435,.T.);
#1435 = EDGE_CURVE('',#1429,#1436,#1438,.T.);
#1436 = VERTEX_POINT('',#1437);
#1437 = CARTESIAN_POINT('',(6.65,15.,31.839379290111));
#1438 = B_SPLINE_CURVE_WITH_KNOTS('',1,(#1439,#1440),.UNSPECIFIED.,.F.,
  .F.,(2,2),(-3.303002354416,4.375756225806),.PIECEWISE_BEZIER_KNOTS.);
#1439 = CARTESIAN_POINT('',(6.65,15.,24.160620709889));
#1440 = CARTESIAN_POINT('',(6.65,15.,31.839379290111));
#1441 = ORIENTED_EDGE('',*,*,#1442,.T.);
#1442 = EDGE_CURVE('',#1436,#1443,#1445,.T.);
#1443 = VERTEX_POINT('',#1444);
#1444 = CARTESIAN_POINT('',(-3.852651993568E-16,15.,35.678758580222));
#1445 = B_SPLINE_CURVE_WITH_KNOTS('',1,(#1446,#1447),.UNSPECIFIED.,.F.,
  .F.,(2,2),(-4.531035644791,3.147722935431),.PIECEWISE_BEZIER_KNOTS.);
#1446 = CARTESIAN_POINT('',(6.65,15.,31.839379290111));
#1447 = CARTESIAN_POINT('',(-4.440892098501E-16,15.,35.678758580222));
#1448 = ORIENTED_EDGE('',*,*,#1449,.T.);
#1449 = EDGE_CURVE('',#1443,#1413,#1450,.T.);
#1450 = B_SPLINE_CURVE_WITH_KNOTS('',1,(#1451,#1452),.UNSPECIFIED.,.F.,
  .F.,(2,2),(-6.987102225542,0.69165635468),.PIECEWISE_BEZIER_KNOTS.);
#1451 = CARTESIAN_POINT('',(0.,15.,35.678758580222));
#1452 = CARTESIAN_POINT('',(-6.65,15.,31.839379290111));
#1453 = B_SPLINE_SURFACE_WITH_KNOTS('',1,1,(
    (#1454,#1455)
    ,(#1456,#1457
    )),.UNSPECIFIED.,.F.,.F.,.F.,(2,2),(2,2),(-10.,10.),(-14.9121331615,
    11.087866838499),.PIECEWISE_BEZIER_KNOTS.);
#1454 = CARTESIAN_POINT('',(-10.,15.,38.));
#1455 = CARTESIAN_POINT('',(-10.,15.,12.));
#1456 = CARTESIAN_POINT('',(10.,15.,38.));
#1457 = CARTESIAN_POINT('',(10.,15.,12.));
#1458 = ADVANCED_FACE('',(#1459),#1469,.F.);
#1459 = FACE_BOUND('',#1460,.F.);
#1460 = EDGE_LOOP('',(#1461,#1468));
#1461 = ORIENTED_EDGE('',*,*,#1462,.T.);
#1462 = EDGE_CURVE('',#1070,#1058,#1463,.T.);
#1463 = CIRCLE('',#1464,13.3);
#1464 = AXIS2_PLACEMENT_3D('',#1465,#1466,#1467);
#1465 = CARTESIAN_POINT('',(0.,0.,13.));
#1466 = DIRECTION('',(0.,0.,1.));
#1467 = DIRECTION('',(1.,0.,-0.));
#1468 = ORIENTED_EDGE('',*,*,#1069,.T.);
#1469 = PLANE('',#1470);
#1470 = AXIS2_PLACEMENT_3D('',#1471,#1472,#1473);
#1471 = CARTESIAN_POINT('',(0.,0.,13.));
#1472 = DIRECTION('',(0.,0.,1.));
#1473 = DIRECTION('',(1.,0.,-0.));
#1474 = ADVANCED_FACE('',(#1475),#1481,.T.);
#1475 = FACE_BOUND('',#1476,.T.);
#1476 = EDGE_LOOP('',(#1477,#1478,#1479,#1480));
#1477 = ORIENTED_EDGE('',*,*,#1202,.T.);
#1478 = ORIENTED_EDGE('',*,*,#1041,.F.);
#1479 = ORIENTED_EDGE('',*,*,#1095,.F.);
#1480 = ORIENTED_EDGE('',*,*,#1225,.T.);
#1481 = ( BOUNDED_SURFACE() B_SPLINE_SURFACE(2,1,(
    (#1482,#1483)
    ,(#1484,#1485)
    ,(#1486,#1487)
    ,(#1488,#1489)
    ,(#1490,#1491
)),.UNSPECIFIED.,.F.,.F.,.F.) B_SPLINE_SURFACE_WITH_KNOTS((3,2,3),(2,2),
  (3.14159265359,4.712388980385,6.28318530718),(0.,6.),
.PIECEWISE_BEZIER_KNOTS.) GEOMETRIC_REPRESENTATION_ITEM() 
RATIONAL_B_SPLINE_SURFACE((
    (1.,1.)
    ,(0.707106781187,0.707106781187)
    ,(1.,1.)
    ,(0.707106781187,0.707106781187)
,(1.,1.))) REPRESENTATION_ITEM('') SURFACE() );
#1482 = CARTESIAN_POINT('',(-10.,-15.,28.));
#1483 = CARTESIAN_POINT('',(-10.,-9.,28.));
#1484 = CARTESIAN_POINT('',(-10.,-15.,38.));
#1485 = CARTESIAN_POINT('',(-10.,-9.,38.));
#1486 = CARTESIAN_POINT('',(-1.836970198721E-15,-15.,38.));
#1487 = CARTESIAN_POINT('',(-1.836970198721E-15,-9.,38.));
#1488 = CARTESIAN_POINT('',(10.,-15.,38.));
#1489 = CARTESIAN_POINT('',(10.,-9.,38.));
#1490 = CARTESIAN_POINT('',(10.,-15.,28.));
#1491 = CARTESIAN_POINT('',(10.,-9.,28.));
#1492 = ADVANCED_FACE('',(#1493),#1499,.T.);
#1493 = FACE_BOUND('',#1494,.T.);
#1494 = EDGE_LOOP('',(#1495,#1496,#1497,#1498));
#1495 = ORIENTED_EDGE('',*,*,#1179,.T.);
#1496 = ORIENTED_EDGE('',*,*,#1397,.F.);
#1497 = ORIENTED_EDGE('',*,*,#1374,.F.);
#1498 = ORIENTED_EDGE('',*,*,#1118,.T.);
#1499 = ( BOUNDED_SURFACE() B_SPLINE_SURFACE(2,1,(
    (#1500,#1501)
    ,(#1502,#1503)
    ,(#1504,#1505)
    ,(#1506,#1507)
    ,(#1508,#1509
)),.UNSPECIFIED.,.F.,.F.,.F.) B_SPLINE_SURFACE_WITH_KNOTS((3,2,3),(2,2),
  (3.14159265359,4.712388980385,6.28318530718),(0.,6.),
.PIECEWISE_BEZIER_KNOTS.) GEOMETRIC_REPRESENTATION_ITEM() 
RATIONAL_B_SPLINE_SURFACE((
    (1.,1.)
    ,(0.707106781187,0.707106781187)
    ,(1.,1.)
    ,(0.707106781187,0.707106781187)
,(1.,1.))) REPRESENTATION_ITEM('') SURFACE() );
#1500 = CARTESIAN_POINT('',(-10.,9.,28.));
#1501 = CARTESIAN_POINT('',(-10.,15.,28.));
#1502 = CARTESIAN_POINT('',(-10.,9.,38.));
#1503 = CARTESIAN_POINT('',(-10.,15.,38.));
#1504 = CARTESIAN_POINT('',(-1.836970198721E-15,9.,38.));
#1505 = CARTESIAN_POINT('',(-1.836970198721E-15,15.,38.));
#1506 = CARTESIAN_POINT('',(10.,9.,38.));
#1507 = CARTESIAN_POINT('',(10.,15.,38.));
#1508 = CARTESIAN_POINT('',(10.,9.,28.));
#1509 = CARTESIAN_POINT('',(10.,15.,28.));
#1510 = ADVANCED_FACE('',(#1511),#1521,.F.);
#1511 = FACE_BOUND('',#1512,.F.);
#1512 = EDGE_LOOP('',(#1513,#1514));
#1513 = ORIENTED_EDGE('',*,*,#1148,.T.);
#1514 = ORIENTED_EDGE('',*,*,#1515,.T.);
#1515 = EDGE_CURVE('',#1149,#1137,#1516,.T.);
#1516 = CIRCLE('',#1517,13.3);
#1517 = AXIS2_PLACEMENT_3D('',#1518,#1519,#1520);
#1518 = CARTESIAN_POINT('',(0.,0.,13.));
#1519 = DIRECTION('',(0.,0.,1.));
#1520 = DIRECTION('',(1.,0.,-0.));
#1521 = PLANE('',#1522);
#1522 = AXIS2_PLACEMENT_3D('',#1523,#1524,#1525);
#1523 = CARTESIAN_POINT('',(0.,0.,13.));
#1524 = DIRECTION('',(0.,0.,1.));
#1525 = DIRECTION('',(1.,0.,-0.));
#1526 = ADVANCED_FACE('',(#1527),#1548,.T.);
#1527 = FACE_BOUND('',#1528,.T.);
#1528 = EDGE_LOOP('',(#1529,#1530,#1537,#1547));
#1529 = ORIENTED_EDGE('',*,*,#1240,.F.);
#1530 = ORIENTED_EDGE('',*,*,#1531,.F.);
#1531 = EDGE_CURVE('',#1532,#1241,#1534,.T.);
#1532 = VERTEX_POINT('',#1533);
#1533 = CARTESIAN_POINT('',(8.,-18.5,28.));
#1534 = B_SPLINE_CURVE_WITH_KNOTS('',1,(#1535,#1536),.UNSPECIFIED.,.F.,
  .F.,(2,2),(0.,3.5),.PIECEWISE_BEZIER_KNOTS.);
#1535 = CARTESIAN_POINT('',(8.,-18.5,28.));
#1536 = CARTESIAN_POINT('',(8.,-15.,28.));
#1537 = ORIENTED_EDGE('',*,*,#1538,.T.);
#1538 = EDGE_CURVE('',#1532,#1532,#1539,.T.);
#1539 = ( BOUNDED_CURVE() B_SPLINE_CURVE(2,(#1540,#1541,#1542,#1543,
#1544,#1545,#1546),.UNSPECIFIED.,.T.,.F.) B_SPLINE_CURVE_WITH_KNOTS((1,2
    ,2,2,2,1),(-2.094395102393,0.,2.094395102393,4.188790204786,
6.28318530718,8.377580409573),.UNSPECIFIED.) CURVE() 
GEOMETRIC_REPRESENTATION_ITEM() RATIONAL_B_SPLINE_CURVE((1.,0.5,1.,0.5,
1.,0.5,1.)) REPRESENTATION_ITEM('') );
#1540 = CARTESIAN_POINT('',(8.,-18.5,28.));
#1541 = CARTESIAN_POINT('',(8.,-18.5,14.143593539449));
#1542 = CARTESIAN_POINT('',(-4.,-18.5,21.071796769724));
#1543 = CARTESIAN_POINT('',(-16.,-18.5,28.));
#1544 = CARTESIAN_POINT('',(-4.,-18.5,34.928203230276));
#1545 = CARTESIAN_POINT('',(8.,-18.5,41.856406460551));
#1546 = CARTESIAN_POINT('',(8.,-18.5,28.));
#1547 = ORIENTED_EDGE('',*,*,#1531,.T.);
#1548 = ( BOUNDED_SURFACE() B_SPLINE_SURFACE(2,1,(
    (#1549,#1550)
    ,(#1551,#1552)
    ,(#1553,#1554)
    ,(#1555,#1556)
    ,(#1557,#1558)
    ,(#1559,#1560)
    ,(#1561,#1562
)),.UNSPECIFIED.,.T.,.F.,.F.) B_SPLINE_SURFACE_WITH_KNOTS((1,2,2,2,2,1),
  (2,2),(-2.094395102393,0.,2.094395102393,4.188790204786,6.28318530718,
    8.377580409573),(0.,3.5),.UNSPECIFIED.) 
GEOMETRIC_REPRESENTATION_ITEM() RATIONAL_B_SPLINE_SURFACE((
    (1.,1.)
    ,(0.5,0.5)
    ,(1.,1.)
    ,(0.5,0.5)
    ,(1.,1.)
    ,(0.5,0.5)
,(1.,1.))) REPRESENTATION_ITEM('') SURFACE() );
#1549 = CARTESIAN_POINT('',(8.,-18.5,28.));
#1550 = CARTESIAN_POINT('',(8.,-15.,28.));
#1551 = CARTESIAN_POINT('',(8.,-18.5,14.143593539449));
#1552 = CARTESIAN_POINT('',(8.,-15.,14.143593539449));
#1553 = CARTESIAN_POINT('',(-4.,-18.5,21.071796769724));
#1554 = CARTESIAN_POINT('',(-4.,-15.,21.071796769724));
#1555 = CARTESIAN_POINT('',(-16.,-18.5,28.));
#1556 = CARTESIAN_POINT('',(-16.,-15.,28.));
#1557 = CARTESIAN_POINT('',(-4.,-18.5,34.928203230276));
#1558 = CARTESIAN_POINT('',(-4.,-15.,34.928203230276));
#1559 = CARTESIAN_POINT('',(8.,-18.5,41.856406460551));
#1560 = CARTESIAN_POINT('',(8.,-15.,41.856406460551));
#1561 = CARTESIAN_POINT('',(8.,-18.5,28.));
#1562 = CARTESIAN_POINT('',(8.,-15.,28.));
#1563 = ADVANCED_FACE('',(#1564),#1586,.T.);
#1564 = FACE_BOUND('',#1565,.T.);
#1565 = EDGE_LOOP('',(#1566,#1575,#1580,#1581));
#1566 = ORIENTED_EDGE('',*,*,#1567,.F.);
#1567 = EDGE_CURVE('',#1568,#1570,#1572,.T.);
#1568 = VERTEX_POINT('',#1569);
#1569 = CARTESIAN_POINT('',(-6.65,10.,24.160620709889));
#1570 = VERTEX_POINT('',#1571);
#1571 = CARTESIAN_POINT('',(-6.65,10.,31.839379290111));
#1572 = B_SPLINE_CURVE_WITH_KNOTS('',1,(#1573,#1574),.UNSPECIFIED.,.F.,
  .F.,(2,2),(0.,7.678758580222),.PIECEWISE_BEZIER_KNOTS.);
#1573 = CARTESIAN_POINT('',(-6.65,10.,24.160620709889));
#1574 = CARTESIAN_POINT('',(-6.65,10.,31.839379290111));
#1575 = ORIENTED_EDGE('',*,*,#1576,.T.);
#1576 = EDGE_CURVE('',#1568,#1415,#1577,.T.);
#1577 = B_SPLINE_CURVE_WITH_KNOTS('',1,(#1578,#1579),.UNSPECIFIED.,.F.,
  .F.,(2,2),(0.,5.),.PIECEWISE_BEZIER_KNOTS.);
#1578 = CARTESIAN_POINT('',(-6.65,10.,24.160620709889));
#1579 = CARTESIAN_POINT('',(-6.65,15.,24.160620709889));
#1580 = ORIENTED_EDGE('',*,*,#1412,.F.);
#1581 = ORIENTED_EDGE('',*,*,#1582,.F.);
#1582 = EDGE_CURVE('',#1570,#1413,#1583,.T.);
#1583 = B_SPLINE_CURVE_WITH_KNOTS('',1,(#1584,#1585),.UNSPECIFIED.,.F.,
  .F.,(2,2),(0.,5.),.PIECEWISE_BEZIER_KNOTS.);
#1584 = CARTESIAN_POINT('',(-6.65,10.,31.839379290111));
#1585 = CARTESIAN_POINT('',(-6.65,15.,31.839379290111));
#1586 = B_SPLINE_SURFACE_WITH_KNOTS('',1,1,(
    (#1587,#1588)
    ,(#1589,#1590
    )),.UNSPECIFIED.,.F.,.F.,.F.,(2,2),(2,2),(0.,7.678758580222),(-5.,0.
    ),.PIECEWISE_BEZIER_KNOTS.);
#1587 = CARTESIAN_POINT('',(-6.65,15.,24.160620709889));
#1588 = CARTESIAN_POINT('',(-6.65,10.,24.160620709889));
#1589 = CARTESIAN_POINT('',(-6.65,15.,31.839379290111));
#1590 = CARTESIAN_POINT('',(-6.65,10.,31.839379290111));
#1591 = ADVANCED_FACE('',(#1592),#1608,.T.);
#1592 = FACE_BOUND('',#1593,.T.);
#1593 = EDGE_LOOP('',(#1594,#1601,#1602,#1603));
#1594 = ORIENTED_EDGE('',*,*,#1595,.F.);
#1595 = EDGE_CURVE('',#1570,#1596,#1598,.T.);
#1596 = VERTEX_POINT('',#1597);
#1597 = CARTESIAN_POINT('',(-9.403767116694E-16,10.,35.678758580222));
#1598 = B_SPLINE_CURVE_WITH_KNOTS('',1,(#1599,#1600),.UNSPECIFIED.,.F.,
  .F.,(2,2),(0.,7.678758580222),.PIECEWISE_BEZIER_KNOTS.);
#1599 = CARTESIAN_POINT('',(-6.65,10.,31.839379290111));
#1600 = CARTESIAN_POINT('',(-8.881784197001E-16,10.,35.678758580222));
#1601 = ORIENTED_EDGE('',*,*,#1582,.T.);
#1602 = ORIENTED_EDGE('',*,*,#1449,.F.);
#1603 = ORIENTED_EDGE('',*,*,#1604,.F.);
#1604 = EDGE_CURVE('',#1596,#1443,#1605,.T.);
#1605 = B_SPLINE_CURVE_WITH_KNOTS('',1,(#1606,#1607),.UNSPECIFIED.,.F.,
  .F.,(2,2),(0.,5.),.PIECEWISE_BEZIER_KNOTS.);
#1606 = CARTESIAN_POINT('',(-9.403767116694E-16,10.,35.678758580222));
#1607 = CARTESIAN_POINT('',(-3.852651993568E-16,15.,35.678758580222));
#1608 = B_SPLINE_SURFACE_WITH_KNOTS('',1,1,(
    (#1609,#1610)
    ,(#1611,#1612
    )),.UNSPECIFIED.,.F.,.F.,.F.,(2,2),(2,2),(0.,7.678758580222),(-5.,0.
    ),.PIECEWISE_BEZIER_KNOTS.);
#1609 = CARTESIAN_POINT('',(-6.65,15.,31.839379290111));
#1610 = CARTESIAN_POINT('',(-6.65,10.,31.839379290111));
#1611 = CARTESIAN_POINT('',(5.551115123126E-16,15.,35.678758580222));
#1612 = CARTESIAN_POINT('',(0.,10.,35.678758580222));
#1613 = ADVANCED_FACE('',(#1614),#1630,.T.);
#1614 = FACE_BOUND('',#1615,.T.);
#1615 = EDGE_LOOP('',(#1616,#1623,#1624,#1625));
#1616 = ORIENTED_EDGE('',*,*,#1617,.F.);
#1617 = EDGE_CURVE('',#1596,#1618,#1620,.T.);
#1618 = VERTEX_POINT('',#1619);
#1619 = CARTESIAN_POINT('',(6.65,10.,31.839379290111));
#1620 = B_SPLINE_CURVE_WITH_KNOTS('',1,(#1621,#1622),.UNSPECIFIED.,.F.,
  .F.,(2,2),(0.,7.678758580222),.PIECEWISE_BEZIER_KNOTS.);
#1621 = CARTESIAN_POINT('',(-9.403767116694E-16,10.,35.678758580222));
#1622 = CARTESIAN_POINT('',(6.65,10.,31.839379290111));
#1623 = ORIENTED_EDGE('',*,*,#1604,.T.);
#1624 = ORIENTED_EDGE('',*,*,#1442,.F.);
#1625 = ORIENTED_EDGE('',*,*,#1626,.F.);
#1626 = EDGE_CURVE('',#1618,#1436,#1627,.T.);
#1627 = B_SPLINE_CURVE_WITH_KNOTS('',1,(#1628,#1629),.UNSPECIFIED.,.F.,
  .F.,(2,2),(0.,5.),.PIECEWISE_BEZIER_KNOTS.);
#1628 = CARTESIAN_POINT('',(6.65,10.,31.839379290111));
#1629 = CARTESIAN_POINT('',(6.65,15.,31.839379290111));
#1630 = B_SPLINE_SURFACE_WITH_KNOTS('',1,1,(
    (#1631,#1632)
    ,(#1633,#1634
    )),.UNSPECIFIED.,.F.,.F.,.F.,(2,2),(2,2),(0.,7.678758580222),(-5.,0.
    ),.PIECEWISE_BEZIER_KNOTS.);
#1631 = CARTESIAN_POINT('',(-3.852651993568E-16,15.,35.678758580222));
#1632 = CARTESIAN_POINT('',(-9.403767116694E-16,10.,35.678758580222));
#1633 = CARTESIAN_POINT('',(6.65,15.,31.839379290111));
#1634 = CARTESIAN_POINT('',(6.65,10.,31.839379290111));
#1635 = ADVANCED_FACE('',(#1636),#1652,.T.);
#1636 = FACE_BOUND('',#1637,.T.);
#1637 = EDGE_LOOP('',(#1638,#1645,#1646,#1647));
#1638 = ORIENTED_EDGE('',*,*,#1639,.F.);
#1639 = EDGE_CURVE('',#1618,#1640,#1642,.T.);
#1640 = VERTEX_POINT('',#1641);
#1641 = CARTESIAN_POINT('',(6.65,10.,24.160620709889));
#1642 = B_SPLINE_CURVE_WITH_KNOTS('',1,(#1643,#1644),.UNSPECIFIED.,.F.,
  .F.,(2,2),(0.,7.678758580222),.PIECEWISE_BEZIER_KNOTS.);
#1643 = CARTESIAN_POINT('',(6.65,10.,31.839379290111));
#1644 = CARTESIAN_POINT('',(6.65,10.,24.160620709889));
#1645 = ORIENTED_EDGE('',*,*,#1626,.T.);
#1646 = ORIENTED_EDGE('',*,*,#1435,.F.);
#1647 = ORIENTED_EDGE('',*,*,#1648,.F.);
#1648 = EDGE_CURVE('',#1640,#1429,#1649,.T.);
#1649 = B_SPLINE_CURVE_WITH_KNOTS('',1,(#1650,#1651),.UNSPECIFIED.,.F.,
  .F.,(2,2),(0.,5.),.PIECEWISE_BEZIER_KNOTS.);
#1650 = CARTESIAN_POINT('',(6.65,10.,24.160620709889));
#1651 = CARTESIAN_POINT('',(6.65,15.,24.160620709889));
#1652 = B_SPLINE_SURFACE_WITH_KNOTS('',1,1,(
    (#1653,#1654)
    ,(#1655,#1656
    )),.UNSPECIFIED.,.F.,.F.,.F.,(2,2),(2,2),(0.,7.678758580222),(-5.,0.
    ),.PIECEWISE_BEZIER_KNOTS.);
#1653 = CARTESIAN_POINT('',(6.65,15.,31.839379290111));
#1654 = CARTESIAN_POINT('',(6.65,10.,31.839379290111));
#1655 = CARTESIAN_POINT('',(6.65,15.,24.160620709889));
#1656 = CARTESIAN_POINT('',(6.65,10.,24.160620709889));
#1657 = ADVANCED_FACE('',(#1658),#1674,.T.);
#1658 = FACE_BOUND('',#1659,.T.);
#1659 = EDGE_LOOP('',(#1660,#1667,#1668,#1669));
#1660 = ORIENTED_EDGE('',*,*,#1661,.F.);
#1661 = EDGE_CURVE('',#1640,#1662,#1664,.T.);
#1662 = VERTEX_POINT('',#1663);
#1663 = CARTESIAN_POINT('',(0.,10.,20.321241419778));
#1664 = B_SPLINE_CURVE_WITH_KNOTS('',1,(#1665,#1666),.UNSPECIFIED.,.F.,
  .F.,(2,2),(0.,7.678758580222),.PIECEWISE_BEZIER_KNOTS.);
#1665 = CARTESIAN_POINT('',(6.65,10.,24.160620709889));
#1666 = CARTESIAN_POINT('',(0.,10.,20.321241419778));
#1667 = ORIENTED_EDGE('',*,*,#1648,.T.);
#1668 = ORIENTED_EDGE('',*,*,#1428,.F.);
#1669 = ORIENTED_EDGE('',*,*,#1670,.F.);
#1670 = EDGE_CURVE('',#1662,#1422,#1671,.T.);
#1671 = B_SPLINE_CURVE_WITH_KNOTS('',1,(#1672,#1673),.UNSPECIFIED.,.F.,
  .F.,(2,2),(0.,5.),.PIECEWISE_BEZIER_KNOTS.);
#1672 = CARTESIAN_POINT('',(0.,10.,20.321241419778));
#1673 = CARTESIAN_POINT('',(5.551115123126E-16,15.,20.321241419778));
#1674 = B_SPLINE_SURFACE_WITH_KNOTS('',1,1,(
    (#1675,#1676)
    ,(#1677,#1678
    )),.UNSPECIFIED.,.F.,.F.,.F.,(2,2),(2,2),(0.,7.678758580222),(-5.,0.
    ),.PIECEWISE_BEZIER_KNOTS.);
#1675 = CARTESIAN_POINT('',(6.65,15.,24.160620709889));
#1676 = CARTESIAN_POINT('',(6.65,10.,24.160620709889));
#1677 = CARTESIAN_POINT('',(5.551115123126E-16,15.,20.321241419778));
#1678 = CARTESIAN_POINT('',(0.,10.,20.321241419778));
#1679 = ADVANCED_FACE('',(#1680),#1690,.T.);
#1680 = FACE_BOUND('',#1681,.T.);
#1681 = EDGE_LOOP('',(#1682,#1687,#1688,#1689));
#1682 = ORIENTED_EDGE('',*,*,#1683,.F.);
#1683 = EDGE_CURVE('',#1662,#1568,#1684,.T.);
#1684 = B_SPLINE_CURVE_WITH_KNOTS('',1,(#1685,#1686),.UNSPECIFIED.,.F.,
  .F.,(2,2),(0.,7.678758580222),.PIECEWISE_BEZIER_KNOTS.);
#1685 = CARTESIAN_POINT('',(0.,10.,20.321241419778));
#1686 = CARTESIAN_POINT('',(-6.65,10.,24.160620709889));
#1687 = ORIENTED_EDGE('',*,*,#1670,.T.);
#1688 = ORIENTED_EDGE('',*,*,#1421,.F.);
#1689 = ORIENTED_EDGE('',*,*,#1576,.F.);
#1690 = B_SPLINE_SURFACE_WITH_KNOTS('',1,1,(
    (#1691,#1692)
    ,(#1693,#1694
    )),.UNSPECIFIED.,.F.,.F.,.F.,(2,2),(2,2),(0.,7.678758580222),(-5.,0.
    ),.PIECEWISE_BEZIER_KNOTS.);
#1691 = CARTESIAN_POINT('',(5.551115123126E-16,15.,20.321241419778));
#1692 = CARTESIAN_POINT('',(0.,10.,20.321241419778));
#1693 = CARTESIAN_POINT('',(-6.65,15.,24.160620709889));
#1694 = CARTESIAN_POINT('',(-6.65,10.,24.160620709889));
#1695 = ADVANCED_FACE('',(#1696,#1699),#1713,.F.);
#1696 = FACE_BOUND('',#1697,.F.);
#1697 = EDGE_LOOP('',(#1698));
#1698 = ORIENTED_EDGE('',*,*,#1538,.T.);
#1699 = FACE_BOUND('',#1700,.F.);
#1700 = EDGE_LOOP('',(#1701));
#1701 = ORIENTED_EDGE('',*,*,#1702,.F.);
#1702 = EDGE_CURVE('',#1703,#1703,#1705,.T.);
#1703 = VERTEX_POINT('',#1704);
#1704 = CARTESIAN_POINT('',(4.,-18.5,28.));
#1705 = ( BOUNDED_CURVE() B_SPLINE_CURVE(2,(#1706,#1707,#1708,#1709,
#1710,#1711,#1712),.UNSPECIFIED.,.T.,.F.) B_SPLINE_CURVE_WITH_KNOTS((1,2
    ,2,2,2,1),(-2.094395102393,0.,2.094395102393,4.188790204786,
6.28318530718,8.377580409573),.UNSPECIFIED.) CURVE() 
GEOMETRIC_REPRESENTATION_ITEM() RATIONAL_B_SPLINE_CURVE((1.,0.5,1.,0.5,
1.,0.5,1.)) REPRESENTATION_ITEM('') );
#1706 = CARTESIAN_POINT('',(4.,-18.5,28.));
#1707 = CARTESIAN_POINT('',(4.,-18.5,21.071796769724));
#1708 = CARTESIAN_POINT('',(-2.,-18.5,24.535898384862));
#1709 = CARTESIAN_POINT('',(-8.,-18.5,28.));
#1710 = CARTESIAN_POINT('',(-2.,-18.5,31.464101615138));
#1711 = CARTESIAN_POINT('',(4.,-18.5,34.928203230276));
#1712 = CARTESIAN_POINT('',(4.,-18.5,28.));
#1713 = B_SPLINE_SURFACE_WITH_KNOTS('',1,1,(
    (#1714,#1715)
    ,(#1716,#1717
    )),.UNSPECIFIED.,.F.,.F.,.F.,(2,2),(2,2),(-8.,8.),(-8.,8.),
  .PIECEWISE_BEZIER_KNOTS.);
#1714 = CARTESIAN_POINT('',(-8.,-18.5,36.));
#1715 = CARTESIAN_POINT('',(-8.,-18.5,20.));
#1716 = CARTESIAN_POINT('',(8.,-18.5,36.));
#1717 = CARTESIAN_POINT('',(8.,-18.5,20.));
#1718 = ADVANCED_FACE('',(#1719),#1727,.T.);
#1719 = FACE_BOUND('',#1720,.T.);
#1720 = EDGE_LOOP('',(#1721,#1722,#1723,#1724,#1725,#1726));
#1721 = ORIENTED_EDGE('',*,*,#1683,.T.);
#1722 = ORIENTED_EDGE('',*,*,#1567,.T.);
#1723 = ORIENTED_EDGE('',*,*,#1595,.T.);
#1724 = ORIENTED_EDGE('',*,*,#1617,.T.);
#1725 = ORIENTED_EDGE('',*,*,#1639,.T.);
#1726 = ORIENTED_EDGE('',*,*,#1661,.T.);
#1727 = B_SPLINE_SURFACE_WITH_KNOTS('',1,1,(
    (#1728,#1729)
    ,(#1730,#1731
    )),.UNSPECIFIED.,.F.,.F.,.F.,(2,2),(2,2),(-7.678758580222,
    7.678758580222),(-6.65,6.65),.PIECEWISE_BEZIER_KNOTS.);
#1728 = CARTESIAN_POINT('',(6.65,10.,35.678758580222));
#1729 = CARTESIAN_POINT('',(-6.65,10.,35.678758580222));
#1730 = CARTESIAN_POINT('',(6.65,10.,20.321241419778));
#1731 = CARTESIAN_POINT('',(-6.65,10.,20.321241419778));
#1732 = ADVANCED_FACE('',(#1733),#1754,.T.);
#1733 = FACE_BOUND('',#1734,.T.);
#1734 = EDGE_LOOP('',(#1735,#1736,#1743,#1753));
#1735 = ORIENTED_EDGE('',*,*,#1702,.F.);
#1736 = ORIENTED_EDGE('',*,*,#1737,.F.);
#1737 = EDGE_CURVE('',#1738,#1703,#1740,.T.);
#1738 = VERTEX_POINT('',#1739);
#1739 = CARTESIAN_POINT('',(4.,-22.,28.));
#1740 = B_SPLINE_CURVE_WITH_KNOTS('',1,(#1741,#1742),.UNSPECIFIED.,.F.,
  .F.,(2,2),(0.,3.5),.PIECEWISE_BEZIER_KNOTS.);
#1741 = CARTESIAN_POINT('',(4.,-22.,28.));
#1742 = CARTESIAN_POINT('',(4.,-18.5,28.));
#1743 = ORIENTED_EDGE('',*,*,#1744,.T.);
#1744 = EDGE_CURVE('',#1738,#1738,#1745,.T.);
#1745 = ( BOUNDED_CURVE() B_SPLINE_CURVE(2,(#1746,#1747,#1748,#1749,
#1750,#1751,#1752),.UNSPECIFIED.,.T.,.F.) B_SPLINE_CURVE_WITH_KNOTS((1,2
    ,2,2,2,1),(-2.094395102393,0.,2.094395102393,4.188790204786,
6.28318530718,8.377580409573),.UNSPECIFIED.) CURVE() 
GEOMETRIC_REPRESENTATION_ITEM() RATIONAL_B_SPLINE_CURVE((1.,0.5,1.,0.5,
1.,0.5,1.)) REPRESENTATION_ITEM('') );
#1746 = CARTESIAN_POINT('',(4.,-22.,28.));
#1747 = CARTESIAN_POINT('',(4.,-22.,21.071796769724));
#1748 = CARTESIAN_POINT('',(-2.,-22.,24.535898384862));
#1749 = CARTESIAN_POINT('',(-8.,-22.,28.));
#1750 = CARTESIAN_POINT('',(-2.,-22.,31.464101615138));
#1751 = CARTESIAN_POINT('',(4.,-22.,34.928203230276));
#1752 = CARTESIAN_POINT('',(4.,-22.,28.));
#1753 = ORIENTED_EDGE('',*,*,#1737,.T.);
#1754 = ( BOUNDED_SURFACE() B_SPLINE_SURFACE(2,1,(
    (#1755,#1756)
    ,(#1757,#1758)
    ,(#1759,#1760)
    ,(#1761,#1762)
    ,(#1763,#1764)
    ,(#1765,#1766)
    ,(#1767,#1768
)),.UNSPECIFIED.,.T.,.F.,.F.) B_SPLINE_SURFACE_WITH_KNOTS((1,2,2,2,2,1),
  (2,2),(-2.094395102393,0.,2.094395102393,4.188790204786,6.28318530718,
    8.377580409573),(0.,3.5),.UNSPECIFIED.) 
GEOMETRIC_REPRESENTATION_ITEM() RATIONAL_B_SPLINE_SURFACE((
    (1.,1.)
    ,(0.5,0.5)
    ,(1.,1.)
    ,(0.5,0.5)
    ,(1.,1.)
    ,(0.5,0.5)
,(1.,1.))) REPRESENTATION_ITEM('') SURFACE() );
#1755 = CARTESIAN_POINT('',(4.,-22.,28.));
#1756 = CARTESIAN_POINT('',(4.,-18.5,28.));
#1757 = CARTESIAN_POINT('',(4.,-22.,21.071796769724));
#1758 = CARTESIAN_POINT('',(4.,-18.5,21.071796769724));
#1759 = CARTESIAN_POINT('',(-2.,-22.,24.535898384862));
#1760 = CARTESIAN_POINT('',(-2.,-18.5,24.535898384862));
#1761 = CARTESIAN_POINT('',(-8.,-22.,28.));
#1762 = CARTESIAN_POINT('',(-8.,-18.5,28.));
#1763 = CARTESIAN_POINT('',(-2.,-22.,31.464101615138));
#1764 = CARTESIAN_POINT('',(-2.,-18.5,31.464101615138));
#1765 = CARTESIAN_POINT('',(4.,-22.,34.928203230276));
#1766 = CARTESIAN_POINT('',(4.,-18.5,34.928203230276));
#1767 = CARTESIAN_POINT('',(4.,-22.,28.));
#1768 = CARTESIAN_POINT('',(4.,-18.5,28.));
#1769 = ADVANCED_FACE('',(#1770),#1773,.F.);
#1770 = FACE_BOUND('',#1771,.T.);
#1771 = EDGE_LOOP('',(#1772));
#1772 = ORIENTED_EDGE('',*,*,#1744,.F.);
#1773 = B_SPLINE_SURFACE_WITH_KNOTS('',1,1,(
    (#1774,#1775)
    ,(#1776,#1777
    )),.UNSPECIFIED.,.F.,.F.,.F.,(2,2),(2,2),(-4.,4.),(-4.,4.),
  .PIECEWISE_BEZIER_KNOTS.);
#1774 = CARTESIAN_POINT('',(-4.,-22.,32.));
#1775 = CARTESIAN_POINT('',(-4.,-22.,24.));
#1776 = CARTESIAN_POINT('',(4.,-22.,32.));
#1777 = CARTESIAN_POINT('',(4.,-22.,24.));
#1778 = ADVANCED_FACE('',(#1779),#1795,.F.);
#1779 = FACE_BOUND('',#1780,.F.);
#1780 = EDGE_LOOP('',(#1781,#1782,#1783,#1784,#1785,#1786,#1787,#1788,
    #1789,#1790,#1791,#1792,#1793,#1794));
#1781 = ORIENTED_EDGE('',*,*,#604,.F.);
#1782 = ORIENTED_EDGE('',*,*,#565,.F.);
#1783 = ORIENTED_EDGE('',*,*,#1057,.F.);
#1784 = ORIENTED_EDGE('',*,*,#1462,.F.);
#1785 = ORIENTED_EDGE('',*,*,#1076,.T.);
#1786 = ORIENTED_EDGE('',*,*,#515,.F.);
#1787 = ORIENTED_EDGE('',*,*,#137,.F.);
#1788 = ORIENTED_EDGE('',*,*,#549,.T.);
#1789 = ORIENTED_EDGE('',*,*,#540,.T.);
#1790 = ORIENTED_EDGE('',*,*,#677,.T.);
#1791 = ORIENTED_EDGE('',*,*,#947,.F.);
#1792 = ORIENTED_EDGE('',*,*,#1136,.F.);
#1793 = ORIENTED_EDGE('',*,*,#1515,.F.);
#1794 = ORIENTED_EDGE('',*,*,#1155,.T.);
#1795 = CYLINDRICAL_SURFACE('',#1796,13.3);
#1796 = AXIS2_PLACEMENT_3D('',#1797,#1798,#1799);
#1797 = CARTESIAN_POINT('',(0.,0.,-1.));
#1798 = DIRECTION('',(0.,0.,1.));
#1799 = DIRECTION('',(1.,0.,-0.));
#1800 = ( GEOMETRIC_REPRESENTATION_CONTEXT(3) 
GLOBAL_UNCERTAINTY_ASSIGNED_CONTEXT((#1804)) 
GLOBAL_UNIT_ASSIGNED_CONTEXT((#1801,#1802,#1803)) REPRESENTATION_CONTEXT
('Context #1','3D Context with UNIT and UNCERTAINTY') );
#1801 = ( LENGTH_UNIT() NAMED_UNIT(*) SI_UNIT(.MILLI.,.METRE.) );
#1802 = ( NAMED_UNIT(*) PLANE_ANGLE_UNIT() SI_UNIT($,.RADIAN.) );
#1803 = ( NAMED_UNIT(*) SI_UNIT($,.STERADIAN.) SOLID_ANGLE_UNIT() );
#1804 = UNCERTAINTY_MEASURE_WITH_UNIT(LENGTH_MEASURE(5.E-07),#1801,
  'distance_accuracy_value','confusion accuracy');
#1805 = PRODUCT_RELATED_PRODUCT_CATEGORY('part',$,(#7));
ENDSEC;
END-ISO-10303-21;
