0
SECTION
2
ENTITIES
0
LINE
8
CONTOUR
10
-25.000
20
-13.000
30
0
11
25.000
21
-13.000
31
0
0
LINE
8
CONTOUR
10
25.000
20
-13.000
30
0
11
25.000
21
33.000
31
0
0
LINE
8
CONTOUR
10
25.000
20
33.000
30
0
11
-25.000
21
33.000
31
0
0
LINE
8
CONTOUR
10
-25.000
20
33.000
30
0
11
-25.000
21
-13.000
31
0
0
CIRCLE
8
TROUS
10
0.000
20
0.000
30
0
40
11.000
0
CIRCLE
8
TROUS
10
19.000
20
-8.000
30
0
40
1.700
0
CIRCLE
8
TROUS
10
19.000
20
24.000
30
0
40
1.700
0
CIRCLE
8
TROUS
10
-19.000
20
-8.000
30
0
40
1.700
0
CIRCLE
8
TROUS
10
-19.000
20
24.000
30
0
40
1.700
0
ENDSEC
0
EOF
